<svg xmlns="http://www.w3.org/2000/svg" viewBox="0 0 161.71 149.4"><defs><style>.cls-1,.cls-2,.cls-4{fill:none;}.cls-1{stroke:#81c2d6;}.cls-1,.cls-2,.cls-4,.cls-7{stroke-miterlimit:10;}.cls-2{stroke:#475569;stroke-width:1.5px;}.cls-3{fill:#81c2d6;}.cls-4{stroke:#cf484c;stroke-width:3px;}.cls-5{fill:#475569;}.cls-6{fill:#cf484c;}.cls-7{fill:#333;stroke:#333;stroke-width:0.25px;}</style></defs><title>banner</title><g id="OBJECTS"><path class="cls-1" d="M106.3,126.51" transform="translate(-11.77 -9.29)"/><path class="cls-1" d="M76,126.51" transform="translate(-11.77 -9.29)"/><path class="cls-1" d="M76,95.12" transform="translate(-11.77 -9.29)"/><path class="cls-2" d="M138.81,57.57V50a8.07,8.07,0,0,0-8.07-8.07H116.42a8.06,8.06,0,0,1-8.07-8.06V19.55a8.06,8.06,0,0,0-8.06-8.06H98.81" transform="translate(-11.77 -9.29)"/><path class="cls-2" d="M46.63,57.57V50a8.07,8.07,0,0,1,8.07-8.07H69a8.06,8.06,0,0,0,8.07-8.06V19.55a8.06,8.06,0,0,1,8.06-8.06h1.78" transform="translate(-11.77 -9.29)"/><path class="cls-3" d="M100.62,11.49a1.85,1.85,0,1,1-3.63,0,1.85,1.85,0,1,1,3.63,0Z" transform="translate(-11.77 -9.29)"/><ellipse class="cls-3" cx="75.16" cy="2.2" rx="1.82" ry="2.2"/><path class="cls-4" d="M138.81,57.57v7a8.33,8.33,0,0,1-8.33,8.33H113.65A30,30,0,0,0,88.06,87.19L85.5,91.36a8.47,8.47,0,0,0,7.22,12.9h0a8.47,8.47,0,0,0,7.22-12.9l-2.56-4.17A30,30,0,0,0,71.79,72.88H55a8.33,8.33,0,0,1-8.33-8.33v-7" transform="translate(-11.77 -9.29)"/><path class="cls-5" d="M49.86,126.42l-2.55,6.3a57.92,57.92,0,0,1-2.94,6.43,10.68,10.68,0,0,1-2.62,3A8.39,8.39,0,0,1,36.41,144a7,7,0,0,1-5.21-2,7.21,7.21,0,0,1-2-5.27,10.48,10.48,0,0,1,3.16-7.57,12.53,12.53,0,0,1,4.27-2.82,13.17,13.17,0,0,1,5.08-1.07,3.22,3.22,0,0,1,2,.55,1.7,1.7,0,0,1,.74,1.44,1.77,1.77,0,0,1-.8,1.5,3.79,3.79,0,0,1-1.77.46,11.79,11.79,0,0,0-4.93,1.4A7,7,0,0,0,34.44,133a6.13,6.13,0,0,0-.9,3.18,4,4,0,0,0,.88,2.71,3,3,0,0,0,2.37,1A4.16,4.16,0,0,0,40,138.34a21.9,21.9,0,0,0,3-5.62l5.33-13.1H46.69c-1.41,0-2.11-.49-2.11-1.47a1.91,1.91,0,0,1,.74-1.62,3.34,3.34,0,0,1,2.1-.58h5.85a7,7,0,0,1,4.35,1.11A4.12,4.12,0,0,1,59,120.5a5.7,5.7,0,0,1-2.18,4.62,7.57,7.57,0,0,1-4.88,1.3Zm1.49-3.67h1.24c1.64,0,2.46-.66,2.46-2,0-.76-.47-1.14-1.4-1.14h-1Z" transform="translate(-11.77 -9.29)"/><path class="cls-5" d="M60,128.53l-.52,1.29c-.47,1.14-1.09,1.72-1.84,1.72a1.65,1.65,0,0,1-1.16-.42,1.36,1.36,0,0,1-.46-1,4.15,4.15,0,0,1,.34-1.2l1.74-4.28c.42-1,1-1.55,1.78-1.55a1.29,1.29,0,0,1,1.39,1.07l.13.48a.65.65,0,0,0,.27.46,2.75,2.75,0,0,0,.91.09h3.59c1.34,0,2,.47,2,1.42,0,1.3-.85,2-2.54,2l-.17.15Q63,131,63,132.29c0,.85.48,1.27,1.42,1.27h1.93q1.95,0,1.95,1.35a1.77,1.77,0,0,1-.68,1.48,3.08,3.08,0,0,1-1.91.52h-3a3.24,3.24,0,0,1-2.51-1.06,3.91,3.91,0,0,1-1-2.75,4.65,4.65,0,0,1,.52-2.09,13.12,13.12,0,0,1,1.85-2.48Z" transform="translate(-11.77 -9.29)"/><path class="cls-5" d="M73,133.56h1.74c1.29,0,1.93.46,1.93,1.37a1.75,1.75,0,0,1-.68,1.46,3.08,3.08,0,0,1-1.91.52H71.59a3.59,3.59,0,0,1-2.13-.55,1.75,1.75,0,0,1-.78-1.51,3.48,3.48,0,0,1,.33-1.29l2.53-6.23.17-.43A2.38,2.38,0,0,1,74,125.16a1.61,1.61,0,0,1,1.11.43,1.33,1.33,0,0,1,.47,1,4.68,4.68,0,0,1-.41,1.51Zm2-13.3a2.15,2.15,0,1,1-1.51.63A2,2,0,0,1,75,120.26Z" transform="translate(-11.77 -9.29)"/><path class="cls-5" d="M80.76,131.51l3.56-4.86.28-.41a2.48,2.48,0,0,1,2-1.29,1.62,1.62,0,0,1,1.18.45,1.58,1.58,0,0,1,.46,1.16,3.63,3.63,0,0,1-.92,2l-5.68,7.35a2.79,2.79,0,0,1-2.25,1.24,2.11,2.11,0,0,1-1.72-.76,3.15,3.15,0,0,1-.63-2.08c0-.18,0-.33,0-.44l.55-6.13a3.26,3.26,0,0,1,.67-1.89,1.88,1.88,0,0,1,1.51-.66,1.3,1.3,0,0,1,1.46,1.48,7.29,7.29,0,0,1-.06.73Z" transform="translate(-11.77 -9.29)"/><path class="cls-5" d="M95.89,137.54h1.78c1.3,0,2,.45,2,1.37a1.7,1.7,0,0,1-.68,1.45,3.06,3.06,0,0,1-1.91.53H94.54a23.94,23.94,0,0,1-1.61,3.5,6.39,6.39,0,0,1-5.9,3.84,5.56,5.56,0,0,1-3.94-1.48,4.75,4.75,0,0,1-1.6-3.65,5,5,0,0,1,.87-2.84,5.5,5.5,0,0,1,2.28-2,11.92,11.92,0,0,1,4.8-.75H92l.44-1.11a5.41,5.41,0,0,1-2.09.48,4.06,4.06,0,0,1-2.66-.84,2.66,2.66,0,0,1-1-2.17,7.3,7.3,0,0,1,.66-2.44L89,127.33l.17-.43a2.43,2.43,0,0,1,2.29-1.74,1.6,1.6,0,0,1,1.13.43,1.45,1.45,0,0,1,.45,1.09,4.48,4.48,0,0,1-.4,1.45l-1.5,3.67a4.8,4.8,0,0,0-.37,1.15c0,.5.28.75,1,.75a3,3,0,0,0,1.44-.41,1.93,1.93,0,0,0,.94-.94l2.06-5,.15-.43a2.41,2.41,0,0,1,2.29-1.74,1.57,1.57,0,0,1,1.13.44,1.44,1.44,0,0,1,.45,1.08,2.93,2.93,0,0,1-.23,1l-.18.42Zm-5,3.35H88.72c-2.35,0-3.53.73-3.53,2.21a1.7,1.7,0,0,0,.48,1.26,1.82,1.82,0,0,0,1.3.47,2.73,2.73,0,0,0,2-.87A11.65,11.65,0,0,0,90.87,140.89Z" transform="translate(-11.77 -9.29)"/><path class="cls-6" d="M108.09,126.42a14.14,14.14,0,0,0-2.07,6.84,4.25,4.25,0,0,0,1,3.2,4.85,4.85,0,0,0,3.4,1H119c1.41,0,2.12.48,2.12,1.45a2,2,0,0,1-.75,1.63,3.29,3.29,0,0,1-2.09.59h-8.91a8.63,8.63,0,0,1-3.56-.61,6.57,6.57,0,0,1-2.92-2.65,7.9,7.9,0,0,1-1.06-4.08,18.92,18.92,0,0,1,1.88-7.34h-1.26c-1.15,0-1.72-.49-1.72-1.47a2,2,0,0,1,.7-1.56,2.51,2.51,0,0,1,1.72-.64h2.64a20.51,20.51,0,0,1,3.72-4.44,9.45,9.45,0,0,1,6.43-2.68,5.27,5.27,0,0,1,3.77,1.4,4.66,4.66,0,0,1,1.49,3.56,5.18,5.18,0,0,1-2.88,4.73c-1.3.73-3.36,1.1-6.2,1.1Zm2.29-3.67h3c2.55,0,3.82-.68,3.82-2a1.27,1.27,0,0,0-.5-1,1.93,1.93,0,0,0-1.26-.41,4.57,4.57,0,0,0-2.55,1A10.44,10.44,0,0,0,110.38,122.75Z" transform="translate(-11.77 -9.29)"/><path class="cls-6" d="M128.58,133.56h1.69c1.29,0,1.94.45,1.94,1.35a1.74,1.74,0,0,1-.69,1.47,3.1,3.1,0,0,1-1.91.53h-2a1.8,1.8,0,0,1-1.8-1,3.4,3.4,0,0,1-2.23,1h-1.75a3.4,3.4,0,0,1-2.72-1.21,4.66,4.66,0,0,1-1-3.15,7.8,7.8,0,0,1,2-5.28,6,6,0,0,1,4.6-2.32,3.2,3.2,0,0,1,2.87,1.36,2.34,2.34,0,0,1,2-1.15,1.6,1.6,0,0,1,1.13.43,1.41,1.41,0,0,1,.45,1.06,2.69,2.69,0,0,1-.25,1l-.16.42Zm-5.57.08h.38a1.63,1.63,0,0,0,1.68-1l1.07-2.66a2.26,2.26,0,0,0,.22-.87.88.88,0,0,0-.41-.72,1.54,1.54,0,0,0-1-.31,2.9,2.9,0,0,0-2.18,1.31,4.22,4.22,0,0,0-1.06,2.7C121.74,133.11,122.16,133.64,123,133.64Z" transform="translate(-11.77 -9.29)"/><path class="cls-6" d="M136.32,128.53l-.53,1.29c-.47,1.14-1.08,1.72-1.84,1.72a1.65,1.65,0,0,1-1.15-.42,1.33,1.33,0,0,1-.46-1,3.84,3.84,0,0,1,.34-1.2l1.73-4.28c.42-1,1-1.55,1.78-1.55a1.29,1.29,0,0,1,1.4,1.07l.12.48a.65.65,0,0,0,.28.46,2.67,2.67,0,0,0,.91.09h3.59c1.34,0,2,.47,2,1.42q0,2-2.55,2l-.17.15c-1.62,1.56-2.44,2.76-2.44,3.61s.47,1.27,1.41,1.27h1.94q2,0,1.95,1.35a1.77,1.77,0,0,1-.68,1.48,3.11,3.11,0,0,1-1.92.52h-3a3.25,3.25,0,0,1-2.51-1.06,3.9,3.9,0,0,1-1-2.75,4.52,4.52,0,0,1,.52-2.09,13,13,0,0,1,1.84-2.48Z" transform="translate(-11.77 -9.29)"/><path class="cls-6" d="M148.69,132.41c0,.77.57,1.15,1.73,1.15H155c1.29,0,1.94.46,1.94,1.37a1.74,1.74,0,0,1-.69,1.46,3.06,3.06,0,0,1-1.91.52H150a5.2,5.2,0,0,1-3.7-1.2,4.6,4.6,0,0,1-1.26-3.5,7.22,7.22,0,0,1,2-5.11,6.26,6.26,0,0,1,4.77-2.15,4.77,4.77,0,0,1,3.23,1,3.5,3.5,0,0,1,1.22,2.77,3.31,3.31,0,0,1-1.69,3.07,5.46,5.46,0,0,1-2.79.57Zm.73-2.79h1.69c1.1,0,1.63-.24,1.6-.73s-.39-.81-1.06-.81A2.47,2.47,0,0,0,149.42,129.62Z" transform="translate(-11.77 -9.29)"/><path class="cls-7" d="M17.54,153.74c0,.06-.07.1-.17.11a.38.38,0,0,0-.35.38l-.45,3.61a.25.25,0,0,0,.1.26.88.88,0,0,0,.35.13c.09,0,.14.06.13.11s0,.1,0,.12a.21.21,0,0,1-.13,0,10.37,10.37,0,0,0-1.37,0,.29.29,0,0,1-.15,0s0-.05,0-.12.08-.12.19-.14a.35.35,0,0,0,.33-.33l.18-1.44a.34.34,0,0,0,0-.09c0-.12-.05-.17-.17-.17H13.51c-.1,0-.17,0-.19,0s-.05.09-.06.21l-.19,1.45q0,.21.39.33c.13,0,.18.08.17.14a.18.18,0,0,1-.06.13h-.15a10.6,10.6,0,0,0-1.38,0,.23.23,0,0,1-.13,0,.19.19,0,0,1,0-.12c0-.06.07-.1.17-.11a.4.4,0,0,0,.39-.39l.43-3.52c0-.21-.11-.36-.41-.42l-.13,0s0,0,0-.09,0-.11.08-.12a.32.32,0,0,1,.16,0,10.75,10.75,0,0,0,1.4,0,.27.27,0,0,1,.14,0s0,.06,0,.12-.06.08-.17.1a1.1,1.1,0,0,0-.31.12.44.44,0,0,0-.09.28l-.15,1.24a.25.25,0,0,0,0,.08c0,.12.07.17.21.17H16a.36.36,0,0,0,.18,0,.42.42,0,0,0,.07-.24l.16-1.26a.17.17,0,0,0,0-.07.19.19,0,0,0-.1-.18,1.47,1.47,0,0,0-.33-.1c-.12,0-.19-.07-.19-.13a.17.17,0,0,1,.06-.12s.08,0,.18,0a6.77,6.77,0,0,0,.79,0l.59,0q.11,0,.12,0A.15.15,0,0,1,17.54,153.74Z" transform="translate(-11.77 -9.29)"/><path class="cls-7" d="M24.4,153.68a4.37,4.37,0,0,0-.16.82q0,.12-.12.12a.13.13,0,0,1-.12-.1,1.12,1.12,0,0,0-.12-.35.46.46,0,0,0-.3-.18c-.11,0-.51,0-1.19,0a.27.27,0,0,0-.15,0,.39.39,0,0,0,0,.11L22,155.64c0,.05,0,.07,0,.08h.09l.93,0c.11,0,.2-.15.28-.41q0-.15.18-.12t.09.12a5.22,5.22,0,0,0-.23,1.29.13.13,0,0,1-.12.11q-.12,0-.12-.12a1.53,1.53,0,0,0,0-.3.22.22,0,0,0-.21-.18,5.85,5.85,0,0,0-.86,0s-.07,0-.07.05c0,.2-.09.73-.2,1.6,0,0,0,.08,0,.11s.13.27.39.31a5.46,5.46,0,0,0,.6,0,1.19,1.19,0,0,0,1.17-.64c0-.1.1-.13.18-.1s.1.06.07.13a6.62,6.62,0,0,0-.23.88s-.09.07-.23.06q-.54,0-1.35,0c-.62,0-1.17,0-1.63,0-.06,0-.1,0-.12,0s0,0,0-.11.07-.1.17-.11a.61.61,0,0,0,.29-.09.49.49,0,0,0,.1-.3l.41-3.37a2.05,2.05,0,0,0,0-.28.28.28,0,0,0-.11-.24l-.25-.1a.13.13,0,0,1-.06-.17c0-.07.11-.09.25-.06s.52,0,1.13,0,1.19,0,1.65,0c.15,0,.22,0,.22,0A.08.08,0,0,1,24.4,153.68Z" transform="translate(-11.77 -9.29)"/><path class="cls-7" d="M32.28,158.37c0,.09-.08.13-.15.11a5.79,5.79,0,0,0-1.44,0c-.12,0-.18,0-.18-.07s0-.12.13-.16c.27-.11.41-.21.41-.31a.93.93,0,0,0,0-.14c-.07-.24-.16-.58-.3-1.05l-.89,0c-.36,0-.65,0-.89,0l-.45.88a.63.63,0,0,0-.08.26.29.29,0,0,0,.18.27c.2.09.3.16.3.19v0c0,.08-.09.12-.23.1a4.1,4.1,0,0,0-1.21,0,.12.12,0,0,1-.1,0s0,0,0-.12.08-.13.25-.2a1.2,1.2,0,0,0,.5-.52c.56-1,.92-1.67,1.07-2a20.07,20.07,0,0,0,.93-1.9.57.57,0,0,1,.34-.3s.09.06.13.21c.36,1.35.76,2.7,1.17,4.07a.67.67,0,0,0,.46.46C32.26,158.26,32.3,158.31,32.28,158.37Zm-1.63-1.93c-.11-.39-.28-1-.52-1.76,0,0,0-.06-.05-.06s0,0-.08.06c-.21.43-.51,1-.89,1.74q.36,0,.84,0Z" transform="translate(-11.77 -9.29)"/><path class="cls-7" d="M39.09,157.52a4,4,0,0,0-.23.88s-.08.07-.22.06c-.35,0-.79,0-1.31,0s-1.13,0-1.6,0H35.6s0-.05,0-.12.07-.1.17-.11a.4.4,0,0,0,.39-.38l.41-3.38a1.91,1.91,0,0,0,0-.2.4.4,0,0,0-.31-.41.15.15,0,0,1-.11-.17.17.17,0,0,1,.06-.09h.18a6.08,6.08,0,0,0,1.21,0l.15,0s.07,0,.07.11a.16.16,0,0,1,0,.11l-.18.07a.76.76,0,0,0-.33.13.7.7,0,0,0-.1.32c0,.35-.18,1.44-.4,3.27v.13A.31.31,0,0,0,37,158a1.94,1.94,0,0,0,.72.09,1.5,1.5,0,0,0,.72-.14,1.09,1.09,0,0,0,.43-.5.35.35,0,0,1,.09-.12s0,0,.1,0A.09.09,0,0,1,39.09,157.52Z" transform="translate(-11.77 -9.29)"/><path class="cls-7" d="M47,153.66a4.49,4.49,0,0,1-.06,1.13c0,.05,0,.07,0,.08a.09.09,0,0,1-.08,0c-.08,0-.13,0-.15-.1a1.13,1.13,0,0,0-.28-.65,1.5,1.5,0,0,0-1-.22c-.23,0-.35,0-.36.13l-.44,3.65a.49.49,0,0,0,0,.12.28.28,0,0,0,.11.24,1,1,0,0,0,.35.14c.12,0,.19.06.19.1a.28.28,0,0,1,0,.13s-.1,0-.22,0a7,7,0,0,0-1.51,0h-.19s0,0,0-.09,0-.13.15-.16a1.09,1.09,0,0,0,.43-.19.63.63,0,0,0,.17-.41l.43-3.55c0-.07,0-.11-.11-.13h-.21a1.74,1.74,0,0,0-1,.24,2,2,0,0,0-.5.66c-.05.1-.11.13-.18.1s-.09-.07-.06-.14a4.72,4.72,0,0,0,.25-1.11c0-.06.08-.08.22-.07.49,0,1,0,1.66,0,1.14,0,1.89,0,2.24-.07Q47,153.57,47,153.66Z" transform="translate(-11.77 -9.29)"/><path class="cls-7" d="M55.62,153.74c0,.06-.06.1-.17.11a.39.39,0,0,0-.35.38l-.45,3.61a.26.26,0,0,0,.1.26,1,1,0,0,0,.35.13c.1,0,.14.06.14.11a.31.31,0,0,1,0,.12.25.25,0,0,1-.14,0,10.22,10.22,0,0,0-1.36,0,.29.29,0,0,1-.15,0s0-.05,0-.12.08-.12.2-.14a.36.36,0,0,0,.33-.33l.18-1.44a.22.22,0,0,1,0-.09c0-.12-.06-.17-.18-.17H51.59c-.1,0-.16,0-.19,0a.52.52,0,0,0-.06.21l-.18,1.45q0,.21.39.33c.12,0,.18.08.17.14a.18.18,0,0,1-.06.13H51.5a10.45,10.45,0,0,0-1.37,0,.21.21,0,0,1-.13,0s0-.05,0-.12.06-.1.17-.11a.4.4,0,0,0,.38-.39l.44-3.52c0-.21-.11-.36-.42-.42l-.12,0a.08.08,0,0,1-.06-.09c0-.07,0-.11.08-.12a.34.34,0,0,1,.16,0,10.91,10.91,0,0,0,1.41,0,.23.23,0,0,1,.13,0,.14.14,0,0,1,0,.12s-.07.08-.18.1a.9.9,0,0,0-.3.12.5.5,0,0,0-.1.28l-.15,1.24s0,.06,0,.08.07.17.21.17h2.42a.31.31,0,0,0,.18,0s.06-.11.08-.24l.16-1.26v-.07a.2.2,0,0,0-.09-.18,1.47,1.47,0,0,0-.33-.1c-.13,0-.19-.07-.19-.13s0-.1,0-.12a.31.31,0,0,1,.18,0,6.83,6.83,0,0,0,.79,0l.59,0a.19.19,0,0,1,.13,0S55.63,153.68,55.62,153.74Z" transform="translate(-11.77 -9.29)"/><path class="cls-7" d="M63.39,154c0,.22,0,.52-.08.91,0,.07-.07.11-.19.12s-.14,0-.15-.09a1.44,1.44,0,0,0-.4-.81,1.26,1.26,0,0,0-.83-.25,1.9,1.9,0,0,0-1.5.72,2.75,2.75,0,0,0-.63,1.85,1.9,1.9,0,0,0,.43,1.31,1.52,1.52,0,0,0,1.2.5A1.7,1.7,0,0,0,62.86,157c0-.08.08-.12.14-.12h.09q.15,0,.12.15a5,5,0,0,1-.3,1,.89.89,0,0,1-.52.37,3.55,3.55,0,0,1-1.24.19,2.47,2.47,0,0,1-1.68-.53,2,2,0,0,1-.59-1.51,2.86,2.86,0,0,1,.91-2.13,3.06,3.06,0,0,1,2.17-.84,3,3,0,0,1,1,.14C63.25,153.78,63.39,153.87,63.39,154Z" transform="translate(-11.77 -9.29)"/><path class="cls-7" d="M71.27,158.37c0,.09-.08.13-.15.11a5.73,5.73,0,0,0-1.43,0c-.13,0-.19,0-.19-.07s0-.12.14-.16c.27-.11.4-.21.4-.31a.93.93,0,0,0,0-.14c-.06-.24-.16-.58-.29-1.05l-.9,0c-.35,0-.65,0-.88,0-.06.12-.22.41-.46.88a.63.63,0,0,0-.08.26.29.29,0,0,0,.18.27c.2.09.3.16.3.19v0c0,.08-.09.12-.23.1a4.1,4.1,0,0,0-1.21,0,.1.1,0,0,1-.09,0s0,0,0-.12.08-.13.26-.2a1.18,1.18,0,0,0,.49-.52c.57-1,.92-1.67,1.08-2,.39-.73.7-1.37.93-1.9a.55.55,0,0,1,.33-.3s.09.06.13.21c.37,1.35.76,2.7,1.17,4.07a.67.67,0,0,0,.46.46C71.25,158.26,71.29,158.31,71.27,158.37Zm-1.63-1.93c-.11-.39-.28-1-.51-1.76,0,0,0-.06-.06-.06s0,0-.07.06l-.9,1.74c.25,0,.53,0,.85,0Z" transform="translate(-11.77 -9.29)"/><path class="cls-7" d="M78.78,158.45c0,.05-.06.08-.18.08a1.71,1.71,0,0,1-1.2-.65,5.27,5.27,0,0,1-1-1.62,2.61,2.61,0,0,1-.46,0l-.19,1.55a.25.25,0,0,0,0,.08.17.17,0,0,0,.08.16.72.72,0,0,0,.32.09c.12,0,.18.07.17.14a.18.18,0,0,1-.06.13h-.16a10.77,10.77,0,0,0-1.37,0c-.06,0-.1,0-.12,0s0,0,0-.11.07-.1.17-.11a.54.54,0,0,0,.29-.1.44.44,0,0,0,.1-.29l.43-3.51s0-.05,0-.07q0-.28-.33-.36c-.13,0-.19-.07-.18-.13a.23.23,0,0,1,0-.12.26.26,0,0,1,.18,0l.44,0H77a1.64,1.64,0,0,1,1,.3.94.94,0,0,1,.39.81,1.29,1.29,0,0,1-1,1.3,2,2,0,0,1-.31.08,6.31,6.31,0,0,0,.77,1.47,1.61,1.61,0,0,0,.88.7A.11.11,0,0,1,78.78,158.45Zm-1.1-3.66a.86.86,0,0,0-.23-.67,1.24,1.24,0,0,0-.82-.22.47.47,0,0,0-.35.09.55.55,0,0,0-.1.31L76,156a3,3,0,0,0,1.11-.19A1,1,0,0,0,77.68,154.79Z" transform="translate(-11.77 -9.29)"/><path class="cls-7" d="M85.62,153.68a4.24,4.24,0,0,0-.17.82q0,.12-.12.12a.13.13,0,0,1-.12-.1,1.12,1.12,0,0,0-.12-.35.46.46,0,0,0-.3-.18,11.72,11.72,0,0,0-1.18,0,.22.22,0,0,0-.15,0,.39.39,0,0,0,0,.11l-.2,1.53c0,.05,0,.07,0,.08h.09l.93,0c.11,0,.21-.15.29-.41q0-.15.18-.12c.07,0,.1.06.08.12a5.73,5.73,0,0,0-.23,1.29c0,.06,0,.1-.12.11s-.12,0-.12-.12a2,2,0,0,0,0-.3.22.22,0,0,0-.21-.18,6,6,0,0,0-.86,0c-.05,0-.07,0-.07.05,0,.2-.09.73-.2,1.6a.45.45,0,0,0,0,.11c0,.17.13.27.38.31a5.57,5.57,0,0,0,.61,0,1.19,1.19,0,0,0,1.16-.64c.05-.1.11-.13.18-.1s.1.06.07.13a6.62,6.62,0,0,0-.23.88s-.08.07-.22.06c-.36,0-.81,0-1.36,0s-1.16,0-1.63,0c-.06,0-.1,0-.12,0s0,0,0-.11.07-.1.17-.11a.66.66,0,0,0,.3-.09.56.56,0,0,0,.1-.3l.41-3.37c0-.13,0-.22,0-.28a.27.27,0,0,0-.1-.24l-.26-.1a.13.13,0,0,1-.06-.17c0-.07.11-.09.26-.06s.51,0,1.12,0,1.2,0,1.66,0c.14,0,.22,0,.22,0S85.62,153.66,85.62,153.68Z" transform="translate(-11.77 -9.29)"/><path class="cls-7" d="M99.44,153.7c0,.07-.07.12-.2.15a1,1,0,0,0-.27.1.27.27,0,0,0-.12.25l-.31,3.56a.42.42,0,0,0,.06.3.57.57,0,0,0,.27.12c.12,0,.18.07.18.14s0,.11-.07.12h-.16a10.81,10.81,0,0,0-1.41,0c-.06,0-.1,0-.12,0a.12.12,0,0,1,0-.11s.07-.09.17-.11a1.47,1.47,0,0,0,.39-.12c.06,0,.09-.14.11-.28l.26-3.16c0-.07,0-.1,0-.1s0,0-.08.07c-1,1.64-1.66,2.84-2,3.57l-.13.28a.21.21,0,0,1-.11.08l-.06,0c-.05,0-.08-.08-.1-.22a30.35,30.35,0,0,0-1.07-3.67c0-.06,0-.09-.07-.09s0,0-.06.11L94,157.6a.68.68,0,0,0,0,.19c0,.21.13.34.4.39s.19.07.18.14,0,.11-.08.12h-.16c-.53,0-.94,0-1.24,0-.07,0-.11,0-.12,0s0-.05,0-.11.07-.09.17-.11a.64.64,0,0,0,.38-.19.82.82,0,0,0,.13-.37l.53-3.24s0-.09,0-.13-.15-.3-.44-.41c-.1-.05-.14-.1-.13-.18s.07-.09.16-.07a4,4,0,0,0,1,0,.46.46,0,0,1,.21,0,.19.19,0,0,1,.09.13l1,3.55s0,.06,0,.06,0,0,.07-.08c.48-.85,1.15-2,2-3.44a.3.3,0,0,1,.25-.19,3.69,3.69,0,0,0,.84-.1.34.34,0,0,1,.17,0A.19.19,0,0,1,99.44,153.7Z" transform="translate(-11.77 -9.29)"/><path class="cls-7" d="M107.26,158.37c0,.09-.08.13-.15.11a5.73,5.73,0,0,0-1.43,0c-.13,0-.19,0-.19-.07s0-.12.13-.16c.28-.11.41-.21.41-.31a.93.93,0,0,0,0-.14c-.06-.24-.16-.58-.29-1.05l-.9,0c-.35,0-.65,0-.88,0-.06.12-.22.41-.46.88a.63.63,0,0,0-.08.26.29.29,0,0,0,.18.27c.2.09.3.16.3.19v0c0,.08-.09.12-.23.1a4.1,4.1,0,0,0-1.21,0,.1.1,0,0,1-.09,0s0,0,0-.12.08-.13.26-.2a1.18,1.18,0,0,0,.49-.52c.57-1,.92-1.67,1.08-2,.39-.73.7-1.37.93-1.9a.55.55,0,0,1,.33-.3c.05,0,.09.06.13.21.37,1.35.76,2.7,1.17,4.07a.67.67,0,0,0,.46.46C107.24,158.26,107.28,158.31,107.26,158.37Zm-1.63-1.93c-.11-.39-.28-1-.51-1.76q0-.06-.06-.06s0,0-.07.06l-.9,1.74c.25,0,.53,0,.85,0Z" transform="translate(-11.77 -9.29)"/><path class="cls-7" d="M114.77,158.45c0,.05-.06.08-.18.08a1.71,1.71,0,0,1-1.2-.65,5.27,5.27,0,0,1-1-1.62,2.67,2.67,0,0,1-.47,0l-.18,1.55a.25.25,0,0,0,0,.08.17.17,0,0,0,.08.16.72.72,0,0,0,.32.09c.12,0,.18.07.17.14a.18.18,0,0,1-.06.13h-.16a10.77,10.77,0,0,0-1.37,0c-.06,0-.1,0-.12,0s0,0,0-.11.07-.1.17-.11a.54.54,0,0,0,.29-.1.44.44,0,0,0,.1-.29l.43-3.51s0-.05,0-.07q0-.28-.33-.36c-.13,0-.19-.07-.18-.13a.23.23,0,0,1,0-.12.26.26,0,0,1,.18,0l.44,0h1.22a1.64,1.64,0,0,1,1,.3.94.94,0,0,1,.39.81,1.29,1.29,0,0,1-1,1.3,2,2,0,0,1-.31.08,6.31,6.31,0,0,0,.77,1.47,1.61,1.61,0,0,0,.88.7A.11.11,0,0,1,114.77,158.45Zm-1.1-3.66a.86.86,0,0,0-.23-.67,1.24,1.24,0,0,0-.82-.22.47.47,0,0,0-.35.09.55.55,0,0,0-.1.31L112,156a3,3,0,0,0,1.11-.19A1,1,0,0,0,113.67,154.79Z" transform="translate(-11.77 -9.29)"/><path class="cls-7" d="M122.48,153.74a.1.1,0,0,1,0,.12l-.14,0a3.3,3.3,0,0,0-.89.53l-1.68,1.38c.38.46,1,1.12,1.72,2a1.35,1.35,0,0,0,.6.39q.17,0,.15.12c0,.09-.06.13-.16.13a8.94,8.94,0,0,0-1.41,0c-.08,0-.12,0-.13-.06s.05-.12.17-.17a.2.2,0,0,0,.11-.2.4.4,0,0,0-.08-.22c-.34-.42-.83-1-1.49-1.74l-.22,1.75c0,.14.11.25.37.33s.17.08.16.14,0,.11-.05.12a.29.29,0,0,1-.15,0,10.58,10.58,0,0,0-1.36,0c-.06,0-.1,0-.12,0a.15.15,0,0,1,0-.11c0-.06.06-.1.16-.11a.4.4,0,0,0,.37-.39l.43-3.52s0,0,0-.07c0-.18-.11-.3-.32-.35l-.12,0a.09.09,0,0,1,0-.1c0-.06,0-.1,0-.11a.29.29,0,0,1,.18,0,10.44,10.44,0,0,0,1.38,0,.14.14,0,0,1,.12,0s0,.05,0,.11-.07.08-.18.1a1,1,0,0,0-.35.13c-.06,0-.09.13-.11.27l-.2,1.6L121,154.4a.48.48,0,0,0,.21-.33.22.22,0,0,0-.17-.2l-.13-.08s0,0,0-.09a.17.17,0,0,1,.06-.09.39.39,0,0,1,.16,0,4.62,4.62,0,0,0,1.23,0h.12S122.48,153.68,122.48,153.74Z" transform="translate(-11.77 -9.29)"/><path class="cls-7" d="M129.28,153.68a4.37,4.37,0,0,0-.16.82q0,.12-.12.12a.11.11,0,0,1-.12-.1,1.36,1.36,0,0,0-.13-.35.41.41,0,0,0-.3-.18,11.72,11.72,0,0,0-1.18,0,.22.22,0,0,0-.15,0,.39.39,0,0,0,0,.11l-.2,1.53c0,.05,0,.07,0,.08H127l.93,0c.11,0,.21-.15.29-.41q0-.15.18-.12c.07,0,.1.06.08.12a5.76,5.76,0,0,0-.22,1.29.13.13,0,0,1-.13.11c-.07,0-.11,0-.11-.12a1.53,1.53,0,0,0,0-.3.22.22,0,0,0-.21-.18,5.93,5.93,0,0,0-.86,0s-.07,0-.07.05c0,.2-.09.73-.2,1.6a.45.45,0,0,0,0,.11c0,.17.13.27.39.31a5.32,5.32,0,0,0,.6,0,1.2,1.2,0,0,0,1.17-.64c0-.1.1-.13.17-.1s.1.06.08.13a6.62,6.62,0,0,0-.23.88s-.09.07-.23.06c-.36,0-.81,0-1.36,0s-1.16,0-1.62,0c-.07,0-.11,0-.13,0s0,0,0-.11.06-.1.17-.11a.65.65,0,0,0,.29-.09.49.49,0,0,0,.1-.3l.41-3.37a2.05,2.05,0,0,0,0-.28.28.28,0,0,0-.11-.24l-.25-.1a.13.13,0,0,1-.07-.17c0-.07.12-.09.26-.06s.51,0,1.12,0,1.2,0,1.66,0c.15,0,.22,0,.22,0A.08.08,0,0,1,129.28,153.68Z" transform="translate(-11.77 -9.29)"/><path class="cls-7" d="M137.14,153.66a4.49,4.49,0,0,1-.06,1.13c0,.05,0,.07,0,.08a.09.09,0,0,1-.08,0c-.08,0-.13,0-.15-.1a1.2,1.2,0,0,0-.27-.65,1.55,1.55,0,0,0-1-.22c-.23,0-.34,0-.36.13l-.44,3.65s0,.08,0,.12a.28.28,0,0,0,.11.24,1.12,1.12,0,0,0,.35.14c.13,0,.19.06.19.1a.28.28,0,0,1,0,.13s-.1,0-.22,0a7,7,0,0,0-1.51,0h-.19s0,0,0-.09,0-.13.15-.16A1,1,0,0,0,134,158a.63.63,0,0,0,.17-.41l.43-3.55c0-.07,0-.11-.11-.13h-.21a1.74,1.74,0,0,0-1,.24,1.87,1.87,0,0,0-.49.66c-.06.1-.12.13-.19.1s-.09-.07-.06-.14a4.72,4.72,0,0,0,.25-1.11c0-.06.08-.08.22-.07.49,0,1.05,0,1.67,0,1.14,0,1.88,0,2.23-.07Q137.13,153.57,137.14,153.66Z" transform="translate(-11.77 -9.29)"/><path class="cls-7" d="M144,154.78a1.46,1.46,0,0,1-.57,1.24,2.49,2.49,0,0,1-1.36.42s-.07,0-.07-.12a.23.23,0,0,1,0-.11.17.17,0,0,1,.12,0,1.2,1.2,0,0,0,1.18-1.38.82.82,0,0,0-.28-.7,1.41,1.41,0,0,0-.85-.2.5.5,0,0,0-.34.09.62.62,0,0,0-.1.31l-.43,3.54a.41.41,0,0,0,0,.1.14.14,0,0,0,.08.14,1,1,0,0,0,.32.09c.12,0,.18.07.17.14a.18.18,0,0,1-.06.13h-.16a10.81,10.81,0,0,0-1.37,0c-.06,0-.1,0-.12,0s0,0,0-.11.07-.1.17-.11a.41.41,0,0,0,.39-.39l.43-3.51s0-.05,0-.07q0-.28-.33-.36c-.13,0-.19-.07-.18-.13s0-.11.06-.12.08,0,.17,0a2.74,2.74,0,0,0,.47,0l.57,0h.66a1.61,1.61,0,0,1,1,.31A1,1,0,0,1,144,154.78Z" transform="translate(-11.77 -9.29)"/><path class="cls-7" d="M150.42,157.52a3.87,3.87,0,0,0-.22.88s-.08.07-.23.06c-.35,0-.78,0-1.3,0s-1.13,0-1.61,0h-.13a.25.25,0,0,1,0-.12c0-.06.07-.1.17-.11a.4.4,0,0,0,.4-.38l.41-3.38a1.56,1.56,0,0,0,0-.2.41.41,0,0,0-.3-.41.14.14,0,0,1-.11-.17q0-.08.06-.09h.18a6.07,6.07,0,0,0,1.21,0l.15,0a.1.1,0,0,1,.07.11.16.16,0,0,1,0,.11.58.58,0,0,1-.18.07.76.76,0,0,0-.32.13.59.59,0,0,0-.1.32c-.05.35-.18,1.44-.4,3.27a.66.66,0,0,0,0,.13.31.31,0,0,0,.19.32,1.85,1.85,0,0,0,.71.09,1.45,1.45,0,0,0,.72-.14,1.11,1.11,0,0,0,.44-.5.26.26,0,0,1,.08-.12s.05,0,.1,0S150.45,157.45,150.42,157.52Z" transform="translate(-11.77 -9.29)"/><path class="cls-7" d="M158.36,158.37c0,.09-.08.13-.15.11a5.79,5.79,0,0,0-1.44,0c-.12,0-.18,0-.18-.07s0-.12.13-.16c.27-.11.41-.21.41-.31a.93.93,0,0,0,0-.14c-.07-.24-.16-.58-.3-1.05l-.89,0c-.36,0-.65,0-.88,0-.07.12-.22.41-.46.88a.63.63,0,0,0-.08.26.29.29,0,0,0,.18.27c.2.09.3.16.3.19v0c0,.08-.09.12-.23.1a4.1,4.1,0,0,0-1.21,0,.12.12,0,0,1-.1,0s0,0,0-.12.08-.13.26-.2a1.24,1.24,0,0,0,.49-.52c.56-1,.92-1.67,1.07-2a20.07,20.07,0,0,0,.93-1.9.6.6,0,0,1,.34-.3s.09.06.13.21c.37,1.35.76,2.7,1.17,4.07a.67.67,0,0,0,.46.46C158.34,158.26,158.38,158.31,158.36,158.37Zm-1.63-1.93c-.11-.39-.28-1-.52-1.76,0,0,0-.06-.05-.06s0,0-.07.06l-.9,1.74c.24,0,.52,0,.85,0Z" transform="translate(-11.77 -9.29)"/><path class="cls-7" d="M166.38,154c0,.22,0,.52-.07.91,0,.07-.07.11-.2.12a.14.14,0,0,1-.15-.09,1.43,1.43,0,0,0-.39-.81,1.28,1.28,0,0,0-.84-.25,1.87,1.87,0,0,0-1.49.72,2.75,2.75,0,0,0-.63,1.85,1.94,1.94,0,0,0,.42,1.31,1.52,1.52,0,0,0,1.21.5,1.69,1.69,0,0,0,1.61-1.24.16.16,0,0,1,.15-.12h.08c.11,0,.14.06.12.15a5.15,5.15,0,0,1-.29,1c-.06.14-.24.26-.53.37a3.46,3.46,0,0,1-1.23.19,2.43,2.43,0,0,1-1.68-.53,1.92,1.92,0,0,1-.59-1.51,2.82,2.82,0,0,1,.91-2.13,3.06,3.06,0,0,1,2.17-.84,2.94,2.94,0,0,1,1,.14C166.25,153.78,166.39,153.87,166.38,154Z" transform="translate(-11.77 -9.29)"/><path class="cls-7" d="M173.35,153.68a4.37,4.37,0,0,0-.16.82q0,.12-.12.12a.13.13,0,0,1-.13-.1,1.12,1.12,0,0,0-.12-.35.41.41,0,0,0-.3-.18,11.72,11.72,0,0,0-1.18,0,.22.22,0,0,0-.15,0,.39.39,0,0,0,0,.11l-.2,1.53c0,.05,0,.07,0,.08h.08l.93,0c.11,0,.21-.15.29-.41q0-.15.18-.12c.07,0,.1.06.08.12a6.35,6.35,0,0,0-.23,1.29c0,.06,0,.1-.12.11s-.11,0-.11-.12a1.53,1.53,0,0,0,0-.3.22.22,0,0,0-.21-.18,5.93,5.93,0,0,0-.86,0c-.05,0-.07,0-.07.05,0,.2-.09.73-.2,1.6a.45.45,0,0,0,0,.11c0,.17.13.27.39.31a5.32,5.32,0,0,0,.6,0,1.18,1.18,0,0,0,1.16-.64c0-.1.11-.13.18-.1s.1.06.08.13a5.38,5.38,0,0,0-.23.88s-.09.07-.23.06c-.36,0-.81,0-1.36,0s-1.16,0-1.63,0c-.06,0-.1,0-.12,0s0,0,0-.11.07-.1.18-.11a.65.65,0,0,0,.29-.09.49.49,0,0,0,.1-.3l.41-3.37a1.69,1.69,0,0,0,0-.28.27.27,0,0,0-.1-.24l-.25-.1a.13.13,0,0,1-.07-.17c0-.07.12-.09.26-.06s.51,0,1.12,0,1.2,0,1.66,0c.15,0,.22,0,.22,0A.08.08,0,0,1,173.35,153.68Z" transform="translate(-11.77 -9.29)"/></g></svg>