<svg xmlns="http://www.w3.org/2000/svg" viewBox="0 0 127.71 32.6"><defs><style>.cls-1{fill:none;stroke:#81c2d6;stroke-miterlimit:10;}.cls-2{fill:#475569;}.cls-3{fill:#cf484c;}</style></defs><title>text-logo</title><g id="OBJECTS"><path class="cls-1" d="M81.22,12.49" transform="translate(-2.12 -1.6)"/><path class="cls-1" d="M50.94,12.49" transform="translate(-2.12 -1.6)"/><path class="cls-1" d="M50.94-18.9" transform="translate(-2.12 -1.6)"/><path class="cls-2" d="M22.78,12.4l-2.55,6.29a57.43,57.43,0,0,1-2.94,6.44,10.68,10.68,0,0,1-2.62,3A8.39,8.39,0,0,1,9.33,30a7,7,0,0,1-5.21-2,7.17,7.17,0,0,1-2-5.26,10.49,10.49,0,0,1,3.17-7.57,12.53,12.53,0,0,1,4.27-2.82,13.17,13.17,0,0,1,5.08-1.07,3.15,3.15,0,0,1,1.95.55,1.7,1.7,0,0,1,.74,1.43,1.77,1.77,0,0,1-.8,1.51,3.92,3.92,0,0,1-1.77.46,11.75,11.75,0,0,0-4.93,1.39A7.15,7.15,0,0,0,7.36,19a6.15,6.15,0,0,0-.91,3.19,4,4,0,0,0,.89,2.71,3,3,0,0,0,2.37,1A4.14,4.14,0,0,0,13,24.31a21.55,21.55,0,0,0,3-5.62L21.29,5.6H19.61c-1.41,0-2.12-.49-2.12-1.48a1.94,1.94,0,0,1,.75-1.62,3.38,3.38,0,0,1,2.1-.57h5.85A7,7,0,0,1,30.54,3a4.1,4.1,0,0,1,1.4,3.43,5.68,5.68,0,0,1-2.18,4.62,7.57,7.57,0,0,1-4.88,1.31Zm1.49-3.67h1.24c1.64,0,2.46-.67,2.46-2C28,6,27.5,5.6,26.57,5.6h-1Z" transform="translate(-2.12 -1.6)"/><path class="cls-2" d="M32.92,14.5l-.52,1.29c-.47,1.15-1.09,1.72-1.85,1.72a1.69,1.69,0,0,1-1.15-.41,1.36,1.36,0,0,1-.46-1,3.7,3.7,0,0,1,.34-1.2L31,10.59C31.43,9.55,32,9,32.8,9a1.28,1.28,0,0,1,1.39,1.07l.13.48a.67.67,0,0,0,.27.46,2.75,2.75,0,0,0,.91.09h3.59q2,0,2,1.41,0,1.95-2.55,1.95l-.16.16q-2.45,2.32-2.45,3.6c0,.85.47,1.28,1.42,1.28h1.93q2,0,2,1.35a1.73,1.73,0,0,1-.68,1.47,3.08,3.08,0,0,1-1.91.53h-3a3.27,3.27,0,0,1-2.51-1.06,3.91,3.91,0,0,1-1-2.75A4.62,4.62,0,0,1,32.67,17a13.13,13.13,0,0,1,1.85-2.49Z" transform="translate(-2.12 -1.6)"/><path class="cls-2" d="M45.87,19.54h1.74c1.29,0,1.93.46,1.93,1.37a1.72,1.72,0,0,1-.68,1.45,3.08,3.08,0,0,1-1.91.53H44.51a3.59,3.59,0,0,1-2.13-.56,1.74,1.74,0,0,1-.78-1.5,3.48,3.48,0,0,1,.33-1.29l2.53-6.23.17-.44a2.38,2.38,0,0,1,2.27-1.73,1.56,1.56,0,0,1,1.11.43,1.33,1.33,0,0,1,.47,1,4.58,4.58,0,0,1-.41,1.5Zm2-13.3A2.12,2.12,0,0,1,50,8.38a2,2,0,0,1-.62,1.51,2.14,2.14,0,0,1-3.65-1.51A2.13,2.13,0,0,1,47.9,6.24Z" transform="translate(-2.12 -1.6)"/><path class="cls-2" d="M53.68,17.48l3.56-4.85.28-.42a2.46,2.46,0,0,1,2-1.28,1.63,1.63,0,0,1,1.19.45,1.58,1.58,0,0,1,.46,1.16,3.61,3.61,0,0,1-.92,2l-5.68,7.36a2.79,2.79,0,0,1-2.25,1.24,2.11,2.11,0,0,1-1.72-.76A3.17,3.17,0,0,1,50,20.26c0-.18,0-.33,0-.44l.55-6.13a3.33,3.33,0,0,1,.67-1.9,1.9,1.9,0,0,1,1.51-.65,1.3,1.3,0,0,1,1.46,1.47c0,.15,0,.39-.06.74Z" transform="translate(-2.12 -1.6)"/><path class="cls-2" d="M68.81,23.52h1.78c1.3,0,2,.45,2,1.36a1.71,1.71,0,0,1-.68,1.46,3.06,3.06,0,0,1-1.91.52H67.46a24.55,24.55,0,0,1-1.61,3.5A6.39,6.39,0,0,1,60,34.2,5.6,5.6,0,0,1,56,32.73a4.76,4.76,0,0,1-1.6-3.66,5,5,0,0,1,.87-2.83,5.5,5.5,0,0,1,2.28-2,11.89,11.89,0,0,1,4.8-.75h2.51l.44-1.11a5.41,5.41,0,0,1-2.09.48,4.06,4.06,0,0,1-2.66-.84,2.68,2.68,0,0,1-1-2.17,7.24,7.24,0,0,1,.66-2.44l1.67-4.13.17-.44a2.42,2.42,0,0,1,2.29-1.73,1.56,1.56,0,0,1,1.13.43,1.45,1.45,0,0,1,.45,1.09,4.38,4.38,0,0,1-.4,1.44L64,17.77a5,5,0,0,0-.37,1.16c0,.5.28.75,1,.75A2.89,2.89,0,0,0,66,19.26a2,2,0,0,0,.94-.93l2.06-5,.15-.44a2.41,2.41,0,0,1,2.29-1.73,1.57,1.57,0,0,1,1.13.44,1.44,1.44,0,0,1,.45,1.08,2.93,2.93,0,0,1-.23,1l-.18.41Zm-5,3.34H61.64c-2.35,0-3.53.74-3.53,2.21a1.67,1.67,0,0,0,.48,1.26,1.78,1.78,0,0,0,1.3.48,2.71,2.71,0,0,0,2-.88A11.31,11.31,0,0,0,63.79,26.86Z" transform="translate(-2.12 -1.6)"/><path class="cls-3" d="M81,12.4a14.1,14.1,0,0,0-2.07,6.83,4.26,4.26,0,0,0,1,3.21,4.85,4.85,0,0,0,3.4,1H91.9c1.41,0,2.12.48,2.12,1.44a2,2,0,0,1-.75,1.64,3.29,3.29,0,0,1-2.09.59H82.27a8.62,8.62,0,0,1-3.56-.62,6.49,6.49,0,0,1-2.92-2.64,8,8,0,0,1-1.06-4.08,18.88,18.88,0,0,1,1.88-7.34H75.35c-1.15,0-1.72-.49-1.72-1.47a2,2,0,0,1,.7-1.56,2.46,2.46,0,0,1,1.72-.64h2.64a20,20,0,0,1,3.72-4.44A9.46,9.46,0,0,1,88.84,1.6,5.31,5.31,0,0,1,92.61,3,4.68,4.68,0,0,1,94.1,6.56a5.17,5.17,0,0,1-2.88,4.73c-1.3.74-3.36,1.11-6.2,1.11ZM83.3,8.73h3c2.55,0,3.82-.68,3.82-2a1.27,1.27,0,0,0-.5-1.05,1.87,1.87,0,0,0-1.26-.41,4.57,4.57,0,0,0-2.55.95A10.27,10.27,0,0,0,83.3,8.73Z" transform="translate(-2.12 -1.6)"/><path class="cls-3" d="M101.5,19.54h1.69c1.29,0,1.94.45,1.94,1.35a1.75,1.75,0,0,1-.69,1.47,3.1,3.1,0,0,1-1.91.53h-2a1.81,1.81,0,0,1-1.8-1,3.45,3.45,0,0,1-2.23,1H94.79a3.43,3.43,0,0,1-2.72-1.21,4.66,4.66,0,0,1-1-3.15,7.79,7.79,0,0,1,2-5.28,6,6,0,0,1,4.6-2.32,3.2,3.2,0,0,1,2.87,1.36,2.31,2.31,0,0,1,2-1.15,1.58,1.58,0,0,1,1.13.43,1.41,1.41,0,0,1,.45,1.06,2.69,2.69,0,0,1-.25,1l-.16.41Zm-5.57.08h.38a1.64,1.64,0,0,0,1.68-1l1.07-2.66a2.3,2.3,0,0,0,.22-.87.91.91,0,0,0-.41-.73,1.6,1.6,0,0,0-1-.3,2.89,2.89,0,0,0-2.18,1.3A4.22,4.22,0,0,0,94.66,18C94.66,19.09,95.08,19.62,95.93,19.62Z" transform="translate(-2.12 -1.6)"/><path class="cls-3" d="M109.24,14.5l-.53,1.29c-.47,1.15-1.08,1.72-1.84,1.72a1.69,1.69,0,0,1-1.15-.41,1.33,1.33,0,0,1-.46-1,3.7,3.7,0,0,1,.34-1.2l1.73-4.28c.42-1,1-1.55,1.78-1.55a1.29,1.29,0,0,1,1.4,1.07l.12.48a.68.68,0,0,0,.28.46,2.67,2.67,0,0,0,.91.09h3.59q2,0,2,1.41,0,1.95-2.55,1.95l-.17.16q-2.45,2.32-2.44,3.6c0,.85.47,1.28,1.41,1.28h1.94q2,0,2,1.35a1.72,1.72,0,0,1-.69,1.47,3.06,3.06,0,0,1-1.91.53h-3a3.28,3.28,0,0,1-2.51-1.06,3.9,3.9,0,0,1-1-2.75A4.49,4.49,0,0,1,109,17a13,13,0,0,1,1.84-2.49Z" transform="translate(-2.12 -1.6)"/><path class="cls-3" d="M121.6,18.39c0,.77.58,1.15,1.74,1.15h4.56c1.29,0,1.93.46,1.93,1.37a1.7,1.7,0,0,1-.68,1.45,3.06,3.06,0,0,1-1.91.53h-4.35a5.19,5.19,0,0,1-3.69-1.2,4.62,4.62,0,0,1-1.27-3.5,7.25,7.25,0,0,1,2-5.12,6.29,6.29,0,0,1,4.77-2.14A4.79,4.79,0,0,1,127.94,12a3.48,3.48,0,0,1,1.22,2.77,3.32,3.32,0,0,1-1.69,3.07,5.46,5.46,0,0,1-2.79.57Zm.74-2.8H124c1.1,0,1.63-.24,1.6-.72s-.39-.81-1.06-.81A2.48,2.48,0,0,0,122.34,15.59Z" transform="translate(-2.12 -1.6)"/></g></svg>