<svg width="207" height="458" viewBox="0 0 207 458" fill="none" xmlns="http://www.w3.org/2000/svg">
<g opacity="0.2">
<path opacity="0.2" fill-rule="evenodd" clip-rule="evenodd" d="M138.216 12.041C141.727 10.2999 146.408 12.3192 144.455 16.922C142.364 21.8508 134.631 21.9117 130.263 21.814C130.7 21.7911 132.108 17.2713 132.59 16.5883C134.011 14.5735 136.057 13.1133 138.216 12.041ZM97.7871 101.848C96.5469 102.909 97.6862 101.948 97.7871 101.848V101.848ZM142.297 34.925C144.397 36.514 144.495 39.3214 142.779 41.2225C140.734 43.4858 137.004 43.4053 134.219 43.1863C132.96 43.0871 126.234 42.5571 127.829 41.4663C127.706 41.5122 127.45 41.6237 127.176 41.7751C127.028 42.309 126.873 42.8409 126.711 43.3705C126.751 43.3934 126.785 43.418 126.827 43.4407C126.781 43.4209 126.749 43.3994 126.709 43.3793C125.088 48.6725 122.783 53.713 119.766 58.429C120.894 57.9886 122.063 57.655 123.248 57.5062C126.757 57.0649 134.137 59.7617 130.21 64.3905C126.444 68.828 120.587 64.0723 116.317 63.4182C112.171 69.1467 107.6 74.6368 102.811 79.9436C103.104 80.0345 103.361 80.2239 103.508 80.5189C105.429 79.5531 107.431 78.1717 109.209 77.7971C111.774 77.2574 117.033 76.9282 118.97 79.2007C121.353 81.995 118.796 84.267 115.979 84.8046C111.894 85.5842 106.549 83.6106 102.619 82.2773C102.17 82.3562 101.679 82.2263 101.386 81.8703C101.299 81.8422 101.212 81.8145 101.128 81.7876C96.2774 87.0686 91.2417 92.1754 86.2366 97.1704C86.2899 97.1676 86.3431 97.1644 86.3987 97.1614C87.704 96.3132 89.1041 95.617 90.6214 95.252C94.1315 94.403 98.261 94.3968 101.108 96.9103C103.944 99.4131 104.946 103.792 102.01 106.606C96.1321 112.237 87.4827 99.4079 84.5196 98.8736C79.4334 103.896 74.0555 108.59 68.5933 113.188C69.2134 113.001 69.8494 112.863 70.5066 112.801C75.8609 112.291 88.4243 118.785 81.8504 125.184C76.1217 130.76 69.4999 120.036 64.8875 116.287C59.7403 120.573 54.5651 124.83 49.535 129.252C52.2776 128.53 54.9277 128.422 57.8669 129.3C60.9082 130.211 65.8152 132.483 63.8903 136.551C61.9325 140.688 56.0395 138.809 52.9703 137.497C51.2963 136.782 47.9406 134.366 44.9937 133.35C36.9669 140.855 30.0133 149.121 24.7473 158.857C21.4597 164.936 18.9639 171.43 17.2062 178.104C16.0842 182.364 13.8741 189.518 14.313 195.062C12.2132 183.966 16.027 170.637 20.133 160.717C23.9084 151.594 29.5557 143.584 36.1692 136.374C34.513 131.434 20.5551 124.315 28.9039 119.72C33.3372 117.291 37.8747 121.316 38.8413 125.581C39.5053 128.511 38.4895 132.195 37.4121 135.04C39.4926 132.842 41.6553 130.715 43.8837 128.658C46.9634 125.815 50.1168 123.055 53.3003 120.329C48.0591 115.453 43.1036 101.509 50.1355 99.224C60.5194 95.86 55.5106 114.887 54.7846 118.453C54.5789 118.465 54.4186 118.404 54.3008 118.272C54.359 118.598 54.4266 118.947 54.5085 119.299C60.6016 114.11 66.7851 109.022 72.7649 103.709C72.2266 103.315 71.3712 101.809 70.6988 101.008C69.1813 99.2013 67.7294 97.3142 66.6687 95.2004C64.9932 91.8602 63.3783 86.5317 67.8254 84.5642C72.6617 82.4206 74.9564 88.447 74.9882 92.0427C75.0099 94.5295 74.3249 96.8923 73.9674 99.33C73.8557 100.09 74.2827 103.517 73.2377 102.043C73.2867 102.587 73.2937 102.98 73.269 103.259C74.3426 102.301 75.4079 101.332 76.4665 100.356C76.4176 100.232 76.3813 100.098 76.3732 99.9424C76.317 98.8705 77.4064 98.457 78.1701 98.7706C79.5669 97.4559 80.9501 96.1247 82.3087 94.7671C85.188 91.8908 88.1092 88.9324 91.0102 85.9111C90.3814 85.3762 90.632 84.635 90.0439 84.0671C89.4569 83.5005 88.3002 83.1875 87.6098 82.6613C85.8733 81.3369 84.4338 79.4069 83.393 77.5073C81.6746 74.3686 79.4552 67.7836 84.4806 66.2846C89.6604 64.7372 92.2859 71.0758 92.6169 75.0394C92.6813 75.8072 92.0972 82.7266 91.6514 85.2393C97.0193 79.6243 102.299 73.7988 107.083 67.8722C105.633 67.8597 101.525 64.9206 100.695 64.1185C98.6687 62.162 95.4485 57.8383 99.0035 55.5476C102.165 53.5158 106.058 56.4543 107.408 59.3114C107.63 59.7818 108.411 64.1612 108.471 66.1263C110.451 63.6131 112.339 61.0852 114.097 58.5491C115.269 56.8631 116.364 55.1325 117.389 53.3652C117.142 53.227 116.911 52.9858 116.692 52.6859C111.422 51.8028 104.707 43.6626 110.899 40.8261C113.847 39.4773 117.042 42.2568 118.484 44.5329C118.78 44.9986 119.258 47.3404 119.647 49.1874C122.596 43.3329 124.85 37.1353 126.566 30.7812C126.108 30.6686 125.719 30.3217 125.668 29.7247C123.11 28.2814 121.09 27.0795 119.306 24.3024C118.197 22.5775 116.201 18.6363 119.462 17.6769C123.705 16.4286 126.367 22.8456 126.713 26.0068C126.753 26.3737 126.751 27.441 126.737 28.4191C126.884 28.3991 127.033 28.4013 127.179 28.4268C128.155 24.4923 128.935 20.5072 129.556 16.5155C127.24 15.7785 126.846 3.73335 128.389 2.01745C131.838 -1.82466 134.266 3.72168 134.081 6.65378C133.862 10.111 132.278 13.2567 130.393 16.0486C130.191 16.3443 130.249 16.3299 130.197 15.9182C130.168 16.1217 130.099 16.2719 129.997 16.3808C130.093 18.2005 130.281 20.0635 130.19 21.6739C129.926 26.2855 129.382 30.9242 128.592 35.4767C128.4 36.5839 128.18 37.6821 127.933 38.7708C129.795 37.1993 132.306 35.8027 133.288 35.3658C135.838 34.2331 139.766 33.0095 142.297 34.925ZM13.8959 194.624C14.019 196.106 14.3844 197.458 15.1039 198.566C14.5758 197.3 14.1796 195.981 13.8959 194.624Z" fill="#C1DEE2"/>
<g opacity="0.5">
<path opacity="0.5" fill-rule="evenodd" clip-rule="evenodd" d="M106.223 163.04C110.425 157.048 118.224 141.83 124.138 139.689C127.948 138.31 126.837 152.575 126.884 155.296C127.067 165.819 126.043 176.276 124.778 186.712C122.498 205.532 115.045 222.293 104.822 238.311C99.5615 246.553 93.3914 254.895 84.8455 260.038C80.9118 262.406 76.1785 262.802 72.2938 264.843C67.7694 267.218 70.2334 265.298 68.1944 270.013C65.3628 276.558 64.4571 285.003 63.147 291.987C57.1316 324.05 42.5683 493.54 45.093 526.153C45.3173 529.044 41.2865 529.735 41.0853 526.206C40.0158 507.495 49.2704 377.917 53.9396 335.542C58.6087 293.166 63.3336 255.73 68.0713 241.069C73.8188 223.283 84.1992 201.893 92.8401 185.307C96.8538 177.601 101.229 170.161 106.223 163.04Z" fill="#69A1AC"/>
<path opacity="0.5" fill-rule="evenodd" clip-rule="evenodd" d="M137.414 370.873C148.349 362.845 160.186 377.996 150.29 386.026C144.82 390.464 139.101 388.885 135.882 385.186C133.792 387.734 131.836 390.398 129.956 392.648C124.229 399.504 118.817 406.523 113.644 413.707C102.898 428.63 93.689 444.396 84.0603 459.874C74.5581 475.149 65.1318 490.503 56.5191 506.166C49.2229 519.436 39.498 535.047 37 549.595C40.7901 518.742 55.1719 489.086 72.298 461.886C89.2848 434.909 108.779 405.448 135.081 384.159C132.404 380.222 132.33 374.603 137.414 370.873Z" fill="#C1DEE2"/>
<path opacity="0.5" fill-rule="evenodd" clip-rule="evenodd" d="M-70.0868 295.626C-63.9676 296.823 -53.9688 310.665 -48.9247 315.94C-42.9301 322.207 -37.4916 328.888 -32.3651 335.887C-21.3289 350.953 -11.4589 366.971 -3.06608 383.675C10.6164 410.906 21.5779 438.86 29.5331 468.513C34.4028 486.665 37.5557 505.478 39.4243 524.16C39.7772 527.684 43.4712 554.848 38.1484 555.58C33.3611 556.24 34.8397 534.954 34.6087 532.058C31.9981 499.393 24.1772 467.61 13.2985 436.821C10.929 430.114 8.72759 421.899 4.93814 415.864C2.20921 411.516 4.91857 413.032 0.122826 411.387C-3.99509 409.974 -8.68687 410.319 -12.9037 408.589C-22.0644 404.832 -29.3994 397.539 -35.8291 390.203C-48.3242 375.947 -58.226 360.523 -63.3874 342.256C-66.2505 332.127 -68.8816 321.939 -70.3417 311.497C-70.7194 308.798 -74.0282 294.855 -70.0868 295.626Z" fill="#69A1AC"/>
<path opacity="0.5" fill-rule="evenodd" clip-rule="evenodd" d="M-45.9386 65.3113C-22.8887 105.286 -3.94723 149.197 8.28342 193.672C15.6937 220.618 20.876 248.27 26.025 275.722C33.9973 318.227 41.5381 360.73 43.6831 403.99C45.8412 447.502 50.1085 497.687 35.8608 539.595C42.9776 497.047 36.202 451.758 35.0023 408.945C34.429 388.507 32.7676 368.269 30.5883 347.95C28.4734 328.24 25.0184 308.624 21.8009 289.069C20.2336 279.545 18.5876 270.036 16.9118 260.532C16.4115 257.696 16.2002 249.282 14.4014 247.345C12.5911 245.395 3.35429 244.6 0.454369 243.17C-5.38507 240.288 -10.8779 236.195 -15.7391 231.87C-25.0582 223.579 -33.1653 212.746 -39.5641 202.068C-54.3693 177.359 -60.2884 147.205 -59.9892 118.589C-59.9318 113.034 -50.9966 53.2052 -54.5851 52.3813C-54.369 52.1283 -54.1647 51.867 -53.972 51.5953C-51.2552 56.1441 -48.5892 60.7237 -45.9386 65.3113Z" fill="#89C5CC"/>
<path opacity="0.5" fill-rule="evenodd" clip-rule="evenodd" d="M202.846 209.483C203.202 208.97 205.517 205.402 204.351 205.63C206.724 205.166 201.087 209.565 207 206.865C204.192 209.517 205.813 212.962 205.85 216.531C205.911 222.325 204.942 228.072 203.851 233.742C202.126 242.704 199.557 251.418 195.828 259.754C187.701 277.921 173.901 295.409 157.518 306.767C149.43 312.375 141.504 314.284 132.28 316.865C126.453 318.496 125.991 321.51 122.898 327.164C116.46 338.94 110.136 350.674 104.457 362.847C97.6769 377.383 91.0948 391.935 84.8859 406.727C63.9694 456.553 46.9453 508.173 38.0048 561.595C37.7859 530.114 45.0686 497.691 54.2551 467.683C60.9469 445.821 69.6583 424.746 78.9499 403.885C81.2015 398.831 84.6135 392.33 85.5696 386.75C86.2391 382.841 84.1923 379.081 83.2551 374.963C79.6015 358.925 79.863 340.958 83.0714 324.835C86.6089 307.056 96.8392 298.804 114.145 296.286C120.474 295.365 128.519 295.702 134.322 293.004C140.645 290.065 143.253 280.406 146.849 274.205C156.506 257.549 167.98 241.574 181.155 227.54C184.803 223.654 188.726 220.069 192.888 216.745C195.513 214.649 201.058 212.065 202.846 209.483Z" fill="#89C5CC"/>
</g>
</g>
</svg>
