<svg width="345" height="279" viewBox="0 0 345 279" fill="none" xmlns="http://www.w3.org/2000/svg">
<g clip-path="url(#clip0)">
<path d="M322.571 156.564C312.882 226.152 233.048 272.539 144.257 260.171C55.4661 247.804 -8.65955 181.365 1.02755 111.776C10.7158 42.1873 110.944 -0.320621 199.737 12.0465C288.529 24.4135 332.259 86.9753 322.571 156.564Z" fill="#BEE2EC" stroke="#BEE2EC" stroke-miterlimit="10"/>
<path d="M229.35 278.939C243.83 278.939 255.569 273.708 255.569 267.255C255.569 260.802 243.83 255.571 229.35 255.571C214.87 255.571 203.131 260.802 203.131 267.255C203.131 273.708 214.87 278.939 229.35 278.939Z" fill="#4AB5D6" stroke="#4AB5D6" stroke-miterlimit="10"/>
<path d="M221.053 7.42627C259.699 19.3299 334.92 54.3851 331.677 146.427C331.549 150.044 336.631 150.792 337.512 147.286C350.5 95.5639 358.408 -4.81833 221.964 0.244963C217.898 0.395049 217.157 6.22559 221.053 7.42627Z" fill="#BEE2EC" stroke="#BEE2EC" stroke-miterlimit="10"/>
<path opacity="0.65" d="M85.2993 141.425L87.2655 26.1053L267.189 12.5063L263.557 183.428L85.2993 141.425Z" fill="#4FBEEA" stroke="#4FBEEA" stroke-miterlimit="10"/>
<path opacity="0.75" d="M64.8892 29.6293L87.2655 26.1053L267.189 12.5063L229.65 20.6902L64.8892 29.6293Z" fill="#ECF9FD" stroke="#ECF9FD" stroke-miterlimit="10"/>
<path opacity="0.48" d="M87.2655 26.1053L64.8892 29.6294V149.499L85.2993 141.425L87.2655 26.1053Z" fill="#ECF9FD" stroke="#ECF9FD" stroke-miterlimit="10"/>
<path d="M64.8892 149.499L85.2993 141.425L263.557 183.428L224.575 200.481L64.8892 149.499Z" fill="#3B98D1" stroke="#3B98D1" stroke-miterlimit="10"/>
<g opacity="0.65">
<path opacity="0.65" d="M65.3033 70.173L86.3185 64.6738L265.909 69.0899L227.703 81.5747L65.3033 70.173Z" fill="#3B98D1" stroke="#3B98D1" stroke-miterlimit="10"/>
<path opacity="0.65" d="M65.4234 70.0529L227.943 81.4546L227.745 88.511L65.3033 72.9093L65.4234 70.0529Z" fill="#396892" stroke="#396892" stroke-miterlimit="10"/>
<path opacity="0.65" d="M227.943 81.4546L227.745 88.511L265.691 75.7189L265.909 69.0899L227.943 81.4546Z" fill="#396892" stroke="#396892" stroke-miterlimit="10"/>
</g>
<path d="M64.9937 112.309L85.489 108.687L264.875 131.097L225.942 142.409L64.9937 112.309Z" fill="#3B98D1" stroke="#3B98D1" stroke-miterlimit="10"/>
<path d="M64.9937 112.309V115.131L226.061 149.734L226.216 142.329L64.9937 112.309Z" fill="#396892" stroke="#396892" stroke-miterlimit="10"/>
<path d="M226.216 142.329L226.061 149.734L264.517 137.224L264.643 131.269L226.216 142.329Z" fill="#396892" stroke="#396892" stroke-miterlimit="10"/>
<path opacity="0.83" d="M229.35 90.0371C232.074 90.0371 234.282 90.5606 234.282 91.2065V94.1422C234.282 95.104 233.46 95.8844 232.446 95.8844H226.254C225.24 95.8844 224.418 95.1052 224.418 94.1422V91.2065C224.418 90.5606 226.625 90.0371 229.35 90.0371Z" fill="#4577A2" stroke="#4577A2" stroke-miterlimit="10"/>
<path d="M233.617 91.5451C233.617 91.5451 229.612 92.9272 225.31 91.5451" stroke="black" stroke-width="2" stroke-miterlimit="10"/>
<path opacity="0.83" d="M224.882 101.289H233.824C234.99 101.289 235.943 100.335 235.943 99.1695V96.6181C235.943 95.4522 234.99 94.4989 233.824 94.4989H224.882C223.717 94.4989 222.764 95.4522 222.764 96.6181V99.1695C222.764 100.335 223.717 101.289 224.882 101.289Z" fill="#548DB0" stroke="#548DB0" stroke-miterlimit="10"/>
<path opacity="0.83" d="M218.673 106.288C219.679 103.733 222.938 99.7963 222.938 99.7963H229.353H235.767C235.767 99.7963 239.013 103.718 240.026 106.274C236.843 107.321 228.361 109.434 218.673 106.288Z" fill="#4577A2" stroke="#4577A2" stroke-miterlimit="10"/>
<path opacity="0.83" d="M218.673 106.288C228.361 109.434 236.843 107.321 240.026 106.273C240.181 106.663 240.286 107.023 240.316 107.331C240.349 107.666 240.373 108.54 240.39 109.787C227.973 112.802 220.872 110.723 218.317 109.641C218.334 108.471 218.357 107.652 218.389 107.331C218.421 107.027 218.521 106.673 218.673 106.288Z" fill="#548DB0" stroke="#548DB0" stroke-miterlimit="10"/>
<path opacity="0.86" d="M240.39 109.787C240.456 114.822 240.399 125.965 240.354 132.564C240.335 135.434 237.876 137.751 234.85 137.751H229.353H223.855C220.829 137.751 218.37 135.435 218.351 132.564C218.307 125.9 218.248 114.603 218.317 109.641C220.872 110.723 227.973 112.802 240.39 109.787Z" fill="#ECF6FA" stroke="#ECF6FA" stroke-miterlimit="10"/>
<path opacity="0.83" d="M236.866 115.933V130.955C236.866 131.491 236.159 131.964 235.126 132.113C232.4 132.505 226.852 133.058 221.257 132.144C220.256 131.981 219.571 131.52 219.571 130.994V115.811C219.571 115.063 220.921 114.495 222.401 114.622C225.301 114.872 229.948 115.135 233.998 114.748C235.488 114.607 236.866 115.177 236.866 115.933Z" fill="#4577A2" stroke="#4577A2" stroke-miterlimit="10"/>
<path opacity="0.86" d="M222.154 121.675H225.864V116.902C225.864 116.495 226.212 116.165 226.641 116.165H229.133C229.563 116.165 229.91 116.495 229.91 116.902V121.675H234.828C235.257 121.675 235.604 122.005 235.604 122.412V124.875C235.604 125.282 235.256 125.612 234.828 125.612H229.91V130.378C229.91 130.785 229.561 131.115 229.133 131.115H226.641C226.211 131.115 225.864 130.785 225.864 130.378V125.612H222.154C221.724 125.612 221.377 125.282 221.377 124.875V122.412C221.377 122.005 221.724 121.675 222.154 121.675Z" fill="#ECF6FA" stroke="#ECF6FA" stroke-miterlimit="10"/>
<path opacity="0.86" d="M218.172 44.1456C218.301 41.1019 219.455 39.2756 221.639 38.1794C223.821 37.0832 224.849 33.66 224.849 33.66H231.267H237.686C237.686 33.66 238.713 37.0832 240.895 38.1794C243.078 39.2756 244.234 41.1019 244.362 44.1456C244.457 46.4005 244.411 63.024 244.381 71.4877C244.372 74.2096 242.042 76.4105 239.172 76.4105H231.268H223.365C220.495 76.4105 218.165 74.2096 218.155 71.4877C218.123 63.024 218.077 46.4005 218.172 44.1456Z" fill="#ECF6FA" stroke="#ECF6FA" stroke-miterlimit="10"/>
<path opacity="0.83" d="M231.41 26.1053C236.512 26.1053 240.647 26.8822 240.647 27.8403V32.1964C240.647 33.624 239.107 34.7803 237.208 34.7803H225.612C223.713 34.7803 222.173 33.6228 222.173 32.1964V27.8403C222.173 26.8822 226.308 26.1053 231.41 26.1053Z" fill="#548DB0" stroke="#548DB0" stroke-miterlimit="10"/>
<path d="M239.403 28.3446C239.403 28.3446 231.902 30.3954 223.844 28.3446" stroke="black" stroke-width="2" stroke-miterlimit="10"/>
<path opacity="0.83" d="M238.402 46.84V66.7078C238.402 67.4162 237.65 68.0417 236.549 68.2386C233.643 68.7573 227.73 69.4873 221.767 68.2795C220.7 68.0633 219.97 67.4534 219.97 66.7582V46.6803C219.97 45.6909 221.41 44.9393 222.987 45.1086C226.079 45.4388 231.031 45.787 235.347 45.2743C236.934 45.0858 238.402 45.841 238.402 46.84Z" fill="#548DB0" stroke="#548DB0" stroke-miterlimit="10"/>
<path opacity="0.83" d="M235.632 49.3182V64.4445C235.632 64.9836 235.058 65.4602 234.221 65.6103C232.009 66.0054 227.508 66.5613 222.968 65.6416C222.155 65.4771 221.599 65.0124 221.599 64.4829V49.1957C221.599 48.4429 222.695 47.8702 223.896 47.9986C226.25 48.2496 230.02 48.5149 233.307 48.1247C234.514 47.983 235.632 48.5582 235.632 49.3182Z" fill="#4577A2" stroke="#4577A2" stroke-miterlimit="10"/>
<path opacity="0.83" d="M87.3891 41.4609C88.9232 41.4609 90.1656 41.7563 90.1656 42.1189V43.7722C90.1656 44.3137 89.7023 44.7532 89.1321 44.7532H85.6462C85.0748 44.7532 84.6127 44.3137 84.6127 43.7722V42.1201C84.6115 41.7563 85.8551 41.4609 87.3891 41.4609Z" fill="#4577A2" stroke="#4577A2" stroke-miterlimit="10"/>
<path d="M89.7912 42.311C89.7912 42.311 87.5357 43.089 85.1133 42.311H89.7912Z" fill="white"/>
<path d="M89.7912 42.311C89.7912 42.311 87.5357 43.089 85.1133 42.311" stroke="black" stroke-width="2" stroke-miterlimit="10"/>
<path opacity="0.83" d="M84.8731 47.7969H89.9075C90.5641 47.7969 91.1007 47.2602 91.1007 46.6035V45.1674C91.1007 44.5107 90.5641 43.974 89.9075 43.974H84.8731C84.2165 43.974 83.6799 44.5107 83.6799 45.1674V46.6035C83.6799 47.259 84.2165 47.7969 84.8731 47.7969Z" fill="#548DB0" stroke="#548DB0" stroke-miterlimit="10"/>
<path opacity="0.83" d="M81.3777 50.6113C81.9443 49.1729 83.7797 46.9553 83.7797 46.9553H87.3916H91.0036C91.0036 46.9553 92.8306 49.1633 93.402 50.6017C91.6086 51.1925 86.8322 52.3836 81.3777 50.6113Z" fill="#4577A2" stroke="#4577A2" stroke-miterlimit="10"/>
<path opacity="0.83" d="M81.3777 50.6113C86.8323 52.3823 91.6086 51.1925 93.4008 50.6029C93.4884 50.8227 93.546 51.0256 93.564 51.1985C93.5832 51.387 93.5964 51.8793 93.606 52.5817C86.615 54.2794 82.6165 53.1076 81.1785 52.4988C81.1881 51.8408 81.2013 51.3798 81.2193 51.1985C81.2349 51.028 81.2925 50.8287 81.3777 50.6113Z" fill="#548DB0" stroke="#548DB0" stroke-miterlimit="10"/>
<path opacity="0.86" d="M93.6048 52.5817C93.642 55.4165 93.6096 61.6901 93.5844 65.4062C93.5736 67.0223 92.1895 68.3263 90.485 68.3263H87.3892H84.2934C82.59 68.3263 81.2048 67.0223 81.194 65.4062C81.1688 61.6541 81.1364 55.2928 81.1748 52.4988C82.6153 53.1076 86.6137 54.2794 93.6048 52.5817Z" fill="#ECF6FA" stroke="#ECF6FA" stroke-miterlimit="10"/>
<path opacity="0.83" d="M91.6206 56.042V64.4997C91.6206 64.801 91.2232 65.0676 90.6411 65.1516C89.1058 65.3726 85.9824 65.6835 82.8326 65.1697C82.2684 65.0772 81.8831 64.8179 81.8831 64.5225V55.9748C81.8831 55.5533 82.6441 55.234 83.476 55.306C85.1097 55.4465 87.7253 55.5942 90.0061 55.3768C90.8451 55.2952 91.6206 55.617 91.6206 56.042Z" fill="#4577A2" stroke="#4577A2" stroke-miterlimit="10"/>
<path opacity="0.86" d="M83.3367 59.2755H85.4254V56.5883C85.4254 56.359 85.6211 56.1729 85.8623 56.1729H87.2656C87.5069 56.1729 87.7025 56.359 87.7025 56.5883V59.2755H90.4718C90.7131 59.2755 90.91 59.4616 90.91 59.6909V61.0777C90.91 61.307 90.7143 61.4931 90.4718 61.4931H87.7025V64.1755C87.7025 64.4048 87.5069 64.5909 87.2656 64.5909H85.8635C85.6223 64.5909 85.4266 64.4048 85.4266 64.1755V61.4931H83.3379C83.0966 61.4931 82.8998 61.307 82.8998 61.0777V59.6909C82.8998 59.4604 83.0954 59.2755 83.3367 59.2755Z" fill="#ECF6FA" stroke="#ECF6FA" stroke-miterlimit="10"/>
<path opacity="0.83" d="M103.113 89.1185C104.647 89.1185 105.889 89.4139 105.889 89.7765V91.4299C105.889 91.9714 105.426 92.4108 104.856 92.4108H101.37C100.799 92.4108 100.336 91.9714 100.336 91.4299V89.7765C100.335 89.4139 101.579 89.1185 103.113 89.1185Z" fill="#4577A2" stroke="#4577A2" stroke-miterlimit="10"/>
<path d="M105.515 89.9687C105.515 89.9687 103.259 90.7468 100.837 89.9687" stroke="black" stroke-width="2" stroke-miterlimit="10"/>
<path opacity="0.83" d="M100.597 95.4546H105.631C106.288 95.4546 106.824 94.9179 106.824 94.2611V92.8251C106.824 92.1683 106.288 91.6316 105.631 91.6316H100.597C99.9403 91.6316 99.4037 92.1683 99.4037 92.8251V94.2611C99.4037 94.9167 99.9403 95.4546 100.597 95.4546Z" fill="#4577A2" stroke="#4577A2" stroke-miterlimit="10"/>
<path opacity="0.83" d="M97.1014 98.269C97.668 96.8306 99.5034 94.6129 99.5034 94.6129H103.115H106.727C106.727 94.6129 108.554 96.821 109.126 98.2594C107.332 98.8501 102.556 100.04 97.1014 98.269Z" fill="#4577A2" stroke="#4577A2" stroke-miterlimit="10"/>
<path opacity="0.83" d="M97.1015 98.269C102.556 100.04 107.332 98.8501 109.125 98.2606C109.212 98.4803 109.27 98.6832 109.288 98.8561C109.307 99.0446 109.32 99.5369 109.33 100.239C102.339 101.937 98.3403 100.765 96.9022 100.157C96.9118 99.4985 96.925 99.0374 96.943 98.8561C96.9586 98.6856 97.0163 98.4863 97.1015 98.269Z" fill="#548DB0" stroke="#548DB0" stroke-miterlimit="10"/>
<path opacity="0.86" d="M109.329 100.239C109.366 103.074 109.333 109.348 109.308 113.064C109.297 114.68 107.913 115.984 106.209 115.984H103.113H100.017C98.3138 115.984 96.9286 114.68 96.9178 113.064C96.8926 109.312 96.8601 102.95 96.8986 100.156C98.339 100.765 102.338 101.937 109.329 100.239Z" fill="#ECF6FA" stroke="#ECF6FA" stroke-miterlimit="10"/>
<path opacity="0.83" d="M107.344 103.7V112.157C107.344 112.459 106.947 112.725 106.365 112.809C104.83 113.03 101.706 113.341 98.5563 112.827C97.9921 112.735 97.6068 112.476 97.6068 112.18V103.631C97.6068 103.21 98.3679 102.89 99.1997 102.962C100.833 103.103 103.449 103.251 105.73 103.033C106.569 102.953 107.344 103.275 107.344 103.7Z" fill="#4577A2" stroke="#4577A2" stroke-miterlimit="10"/>
<path opacity="0.86" d="M99.0605 106.933H101.149V104.246C101.149 104.017 101.345 103.831 101.587 103.831H102.991C103.232 103.831 103.429 104.017 103.429 104.246V106.933H106.198C106.439 106.933 106.636 107.119 106.636 107.349V108.735C106.636 108.965 106.44 109.151 106.198 109.151H103.429V111.833C103.429 112.062 103.233 112.249 102.991 112.249H101.587C101.346 112.249 101.149 112.062 101.149 111.833V109.151H99.0605C98.8192 109.151 98.6223 108.965 98.6223 108.735V107.349C98.6235 107.118 98.8192 106.933 99.0605 106.933Z" fill="#ECF6FA" stroke="#ECF6FA" stroke-miterlimit="10"/>
<path opacity="0.83" d="M111.752 132.173C113.286 132.173 114.529 132.468 114.529 132.831V134.484C114.529 135.026 114.065 135.465 113.495 135.465H110.009C109.438 135.465 108.976 135.026 108.976 134.484V132.831C108.975 132.468 110.218 132.173 111.752 132.173Z" fill="#4577A2" stroke="#4577A2" stroke-miterlimit="10"/>
<path d="M114.155 133.023C114.155 133.023 111.9 133.801 109.477 133.023" stroke="black" stroke-width="2" stroke-miterlimit="10"/>
<path opacity="0.83" d="M109.236 138.508H114.271C114.927 138.508 115.464 137.971 115.464 137.314V135.878C115.464 135.221 114.927 134.685 114.271 134.685H109.236C108.58 134.685 108.043 135.221 108.043 135.878V137.314C108.043 137.971 108.581 138.508 109.236 138.508Z" fill="#548DB0" stroke="#548DB0" stroke-miterlimit="10"/>
<path opacity="0.83" d="M105.741 141.323C106.307 139.885 108.143 137.667 108.143 137.667H111.755H115.366C115.366 137.667 117.193 139.875 117.765 141.314C115.971 141.904 111.195 143.094 105.741 141.323Z" fill="#4577A2" stroke="#4577A2" stroke-miterlimit="10"/>
<path opacity="0.83" d="M105.741 141.323C111.195 143.094 115.972 141.904 117.764 141.315C117.851 141.535 117.909 141.737 117.927 141.91C117.946 142.099 117.959 142.591 117.969 143.294C110.978 144.991 106.979 143.819 105.541 143.211C105.551 142.553 105.564 142.092 105.582 141.91C105.598 141.739 105.655 141.539 105.741 141.323Z" fill="#548DB0" stroke="#548DB0" stroke-miterlimit="10"/>
<path opacity="0.86" d="M117.968 143.294C118.005 146.128 117.973 152.402 117.947 156.118C117.937 157.734 116.552 159.038 114.848 159.038H111.752H108.659C106.955 159.038 105.57 157.734 105.559 156.118C105.534 152.366 105.502 146.005 105.54 143.211C106.978 143.819 110.977 144.991 117.968 143.294Z" fill="#ECF6FA" stroke="#ECF6FA" stroke-miterlimit="10"/>
<path opacity="0.83" d="M115.983 146.754V155.212C115.983 155.513 115.586 155.779 115.004 155.864C113.469 156.084 110.345 156.395 107.195 155.882C106.631 155.789 106.246 155.53 106.246 155.234V146.687C106.246 146.265 107.007 145.946 107.839 146.018C109.473 146.158 112.088 146.306 114.369 146.089C115.208 146.007 115.983 146.328 115.983 146.754Z" fill="#4577A2" stroke="#4577A2" stroke-miterlimit="10"/>
<path opacity="0.86" d="M107.701 149.987H109.789V147.3C109.789 147.071 109.985 146.885 110.228 146.885H111.631C111.872 146.885 112.069 147.071 112.069 147.3V149.987H114.838C115.08 149.987 115.276 150.173 115.276 150.403V151.79C115.276 152.019 115.081 152.205 114.838 152.205H112.068V154.887C112.068 155.117 111.872 155.303 111.63 155.303H110.226C109.985 155.303 109.788 155.117 109.788 154.887V152.205H107.7C107.458 152.205 107.263 152.019 107.263 151.79V150.403C107.263 150.172 107.458 149.987 107.701 149.987Z" fill="#ECF6FA" stroke="#ECF6FA" stroke-miterlimit="10"/>
<path opacity="0.83" d="M131.382 37.4146C133.321 37.4146 134.893 37.7869 134.893 38.2467V40.3371C134.893 41.0215 134.307 41.5774 133.586 41.5774H129.178C128.457 41.5774 127.871 41.0227 127.871 40.3371V38.2467C127.871 37.7881 129.443 37.4146 131.382 37.4146Z" fill="#4577A2" stroke="#4577A2" stroke-miterlimit="10"/>
<path d="M134.42 38.4892C134.42 38.4892 131.569 39.4726 128.506 38.4892" stroke="black" stroke-width="2" stroke-miterlimit="10"/>
<path opacity="0.83" d="M128.201 45.4244H134.567C135.396 45.4244 136.074 44.746 136.074 43.9163V42.0997C136.074 41.27 135.396 40.5916 134.567 40.5916H128.201C127.372 40.5916 126.693 41.27 126.693 42.0997V43.9163C126.693 44.746 127.372 45.4244 128.201 45.4244Z" fill="#548DB0" stroke="#548DB0" stroke-miterlimit="10"/>
<path opacity="0.83" d="M123.781 48.9845C124.498 47.1654 126.817 44.363 126.817 44.363H131.383H135.95C135.95 44.363 138.26 47.1546 138.982 48.9737C136.717 49.7193 130.679 51.2238 123.781 48.9845Z" fill="#4577A2" stroke="#4577A2" stroke-miterlimit="10"/>
<path opacity="0.83" d="M123.781 48.9844C130.677 51.2237 136.717 49.7193 138.982 48.9736C139.092 49.2522 139.167 49.5079 139.188 49.7265C139.212 49.9654 139.229 50.5874 139.241 51.4747C130.401 53.6203 125.347 52.1398 123.528 51.3702C123.54 50.5381 123.556 49.9546 123.58 49.7265C123.601 49.5103 123.674 49.2582 123.781 48.9844Z" fill="#548DB0" stroke="#548DB0" stroke-miterlimit="10"/>
<path opacity="0.86" d="M139.241 51.4747C139.288 55.0587 139.247 62.9917 139.216 67.6887C139.203 69.7323 137.452 71.3809 135.298 71.3809H131.384H127.471C125.317 71.3809 123.566 69.7323 123.553 67.6887C123.522 62.9448 123.48 54.9026 123.529 51.3702C125.347 52.1411 130.403 53.6215 139.241 51.4747Z" fill="#ECF6FA" stroke="#ECF6FA" stroke-miterlimit="10"/>
<path opacity="0.83" d="M136.732 55.85V66.5433C136.732 66.9251 136.229 67.2613 135.495 67.367C133.554 67.6468 129.604 68.0394 125.621 67.3886C124.908 67.2721 124.421 66.9443 124.421 66.5697V55.7623C124.421 55.2292 125.383 54.8258 126.435 54.9159C128.5 55.0936 131.808 55.2809 134.692 55.0059C135.751 54.9051 136.732 55.3121 136.732 55.85Z" fill="#4577A2" stroke="#4577A2" stroke-miterlimit="10"/>
<path opacity="0.86" d="M126.259 59.9383H128.9V56.5404C128.9 56.251 129.147 56.0157 129.453 56.0157H131.227C131.533 56.0157 131.781 56.251 131.781 56.5404V59.9383H135.281C135.587 59.9383 135.834 60.1736 135.834 60.463V62.216C135.834 62.5054 135.587 62.7407 135.281 62.7407H131.781V66.1326C131.781 66.422 131.533 66.6573 131.227 66.6573H129.453C129.147 66.6573 128.9 66.422 128.9 66.1326V62.7407H126.259C125.953 62.7407 125.705 62.5054 125.705 62.216V60.463C125.707 60.1724 125.954 59.9383 126.259 59.9383Z" fill="#ECF6FA" stroke="#ECF6FA" stroke-miterlimit="10"/>
<path opacity="0.83" d="M168.757 93.3246C170.696 93.3246 172.268 93.6968 172.268 94.1566V96.247C172.268 96.9314 171.682 97.4873 170.961 97.4873H166.553C165.832 97.4873 165.246 96.9326 165.246 96.247V94.1566C165.246 93.6968 166.817 93.3246 168.757 93.3246Z" fill="#4577A2" stroke="#4577A2" stroke-miterlimit="10"/>
<path d="M171.795 94.3992C171.795 94.3992 168.944 95.3826 165.881 94.3992" stroke="black" stroke-width="2" stroke-miterlimit="10"/>
<path opacity="0.83" d="M165.576 101.334H171.942C172.771 101.334 173.45 100.656 173.45 99.8263V98.0096C173.45 97.18 172.771 96.5016 171.942 96.5016H165.576C164.747 96.5016 164.068 97.18 164.068 98.0096V99.8263C164.068 100.656 164.747 101.334 165.576 101.334Z" fill="#548DB0" stroke="#548DB0" stroke-miterlimit="10"/>
<path opacity="0.83" d="M161.156 104.893C161.873 103.074 164.192 100.272 164.192 100.272H168.758H173.325C173.325 100.272 175.635 103.063 176.357 104.882C174.092 105.629 168.052 107.134 161.156 104.893Z" fill="#4577A2" stroke="#4577A2" stroke-miterlimit="10"/>
<path opacity="0.83" d="M161.156 104.893C168.053 107.132 174.092 105.628 176.357 104.882C176.467 105.161 176.542 105.417 176.563 105.635C176.587 105.874 176.604 106.496 176.616 107.383C167.776 109.529 162.722 108.049 160.903 107.279C160.915 106.447 160.931 105.863 160.955 105.634C160.976 105.419 161.048 105.167 161.156 104.893Z" fill="#548DB0" stroke="#548DB0" stroke-miterlimit="10"/>
<path opacity="0.86" d="M176.616 107.385C176.663 110.969 176.622 118.902 176.591 123.599C176.578 125.642 174.828 127.291 172.673 127.291H168.76H164.846C162.692 127.291 160.942 125.642 160.928 123.599C160.897 118.855 160.855 110.813 160.904 107.28C162.722 108.05 167.776 109.53 176.616 107.385Z" fill="#ECF6FA" stroke="#ECF6FA" stroke-miterlimit="10"/>
<path opacity="0.83" d="M174.107 111.76V122.453C174.107 122.835 173.604 123.171 172.87 123.277C170.929 123.557 166.979 123.949 162.997 123.3C162.283 123.183 161.796 122.855 161.796 122.481V111.673C161.796 111.14 162.758 110.737 163.81 110.827C165.875 111.005 169.183 111.192 172.067 110.917C173.127 110.815 174.107 111.222 174.107 111.76Z" fill="#4577A2" stroke="#4577A2" stroke-miterlimit="10"/>
<path opacity="0.86" d="M163.634 115.847H166.275V112.449C166.275 112.16 166.522 111.924 166.828 111.924H168.602C168.908 111.924 169.156 112.16 169.156 112.449V115.847H172.656C172.962 115.847 173.209 116.082 173.209 116.372V118.125C173.209 118.414 172.962 118.649 172.656 118.649H169.156V122.041C169.156 122.331 168.908 122.566 168.602 122.566H166.828C166.522 122.566 166.275 122.331 166.275 122.041V118.649H163.634C163.328 118.649 163.081 118.414 163.081 118.125V116.372C163.081 116.082 163.329 115.847 163.634 115.847Z" fill="#ECF6FA" stroke="#ECF6FA" stroke-miterlimit="10"/>
<path opacity="0.83" d="M172.016 144.635C173.899 144.635 175.428 144.997 175.428 145.444V147.474C175.428 148.14 174.859 148.679 174.158 148.679H169.876C169.175 148.679 168.606 148.14 168.606 147.474V145.444C168.606 144.996 170.133 144.635 172.016 144.635Z" fill="#4577A2" stroke="#4577A2" stroke-miterlimit="10"/>
<path d="M174.968 145.678C174.968 145.678 172.197 146.634 169.222 145.678" stroke="black" stroke-width="2" stroke-miterlimit="10"/>
<path opacity="0.83" d="M168.926 152.416H175.111C175.916 152.416 176.576 151.757 176.576 150.95V149.185C176.576 148.38 175.917 147.719 175.111 147.719H168.926C168.121 147.719 167.461 148.378 167.461 149.185V150.95C167.461 151.757 168.121 152.416 168.926 152.416Z" fill="#548DB0" stroke="#548DB0" stroke-miterlimit="10"/>
<path opacity="0.83" d="M164.633 155.874C165.329 154.107 167.582 151.384 167.582 151.384H172.019H176.455C176.455 151.384 178.7 154.096 179.401 155.864C177.199 156.589 171.333 158.051 164.633 155.874Z" fill="#4577A2" stroke="#4577A2" stroke-miterlimit="10"/>
<path opacity="0.83" d="M164.633 155.874C171.333 158.05 177.199 156.589 179.401 155.864C179.508 156.134 179.58 156.382 179.601 156.595C179.624 156.827 179.641 157.43 179.653 158.294C171.065 160.379 166.153 158.941 164.386 158.193C164.397 157.384 164.414 156.818 164.436 156.595C164.457 156.386 164.528 156.141 164.633 155.874Z" fill="#548DB0" stroke="#548DB0" stroke-miterlimit="10"/>
<path opacity="0.86" d="M179.653 158.295C179.699 161.777 179.659 169.484 179.628 174.048C179.615 176.033 177.914 177.636 175.821 177.636H172.019H168.216C166.122 177.636 164.423 176.034 164.409 174.048C164.378 169.438 164.338 161.626 164.385 158.193C166.153 158.941 171.064 160.379 179.653 158.295Z" fill="#ECF6FA" stroke="#ECF6FA" stroke-miterlimit="10"/>
<path opacity="0.83" d="M177.215 162.545V172.935C177.215 173.305 176.726 173.633 176.012 173.736C174.126 174.007 170.289 174.389 166.42 173.757C165.727 173.645 165.253 173.325 165.253 172.961V162.461C165.253 161.944 166.187 161.551 167.211 161.639C169.217 161.812 172.431 161.993 175.232 161.725C176.262 161.628 177.215 162.023 177.215 162.545Z" fill="#4577A2" stroke="#4577A2" stroke-miterlimit="10"/>
<path opacity="0.86" d="M167.039 166.517H169.606V163.217C169.606 162.936 169.846 162.706 170.143 162.706H171.867C172.164 162.706 172.405 162.934 172.405 163.217V166.517H175.806C176.102 166.517 176.343 166.745 176.343 167.028V168.73C176.343 169.011 176.103 169.24 175.806 169.24H172.405V172.536C172.405 172.817 172.165 173.047 171.867 173.047H170.143C169.847 173.047 169.606 172.818 169.606 172.536V169.24H167.039C166.743 169.24 166.501 169.012 166.501 168.73V167.028C166.503 166.745 166.743 166.517 167.039 166.517Z" fill="#ECF6FA" stroke="#ECF6FA" stroke-miterlimit="10"/>
<path opacity="0.83" d="M187.236 32.2661C189.617 32.2661 191.549 32.7235 191.549 33.2891V35.8573C191.549 36.699 190.83 37.381 189.943 37.381H184.528C183.641 37.381 182.922 36.699 182.922 35.8573V33.2891C182.922 32.7247 184.853 32.2661 187.236 32.2661Z" fill="#4577A2" stroke="#4577A2" stroke-miterlimit="10"/>
<path d="M190.968 33.5856C190.968 33.5856 187.465 34.7947 183.702 33.5856" stroke="black" stroke-width="2" stroke-miterlimit="10"/>
<path opacity="0.83" d="M183.327 42.1069H191.148C192.167 42.1069 193 41.2724 193 40.2542V38.0233C193 37.0039 192.166 36.1707 191.148 36.1707H183.327C182.308 36.1707 181.475 37.0051 181.475 38.0233V40.2542C181.475 41.2724 182.309 42.1069 183.327 42.1069Z" fill="#548DB0" stroke="#548DB0" stroke-miterlimit="10"/>
<path opacity="0.83" d="M177.898 46.4798C178.778 44.2453 181.628 40.8018 181.628 40.8018H187.237H192.846C192.846 40.8018 195.685 44.2309 196.571 46.4666C193.789 47.3815 186.37 49.2306 177.898 46.4798Z" fill="#4577A2" stroke="#4577A2" stroke-miterlimit="10"/>
<path opacity="0.83" d="M177.898 46.4798C186.37 49.2305 193.789 47.3827 196.572 46.4666C196.708 46.8076 196.799 47.1221 196.826 47.3923C196.856 47.6853 196.876 48.4501 196.89 49.5403C186.032 52.177 179.821 50.358 177.587 49.4119C177.602 48.3889 177.622 47.6733 177.65 47.3923C177.677 47.1245 177.766 46.816 177.898 46.4798Z" fill="#548DB0" stroke="#548DB0" stroke-miterlimit="10"/>
<path opacity="0.86" d="M196.891 49.5391C196.948 53.942 196.898 63.6868 196.859 69.4585C196.842 71.9691 194.693 73.9947 192.046 73.9947H187.238H182.431C179.784 73.9947 177.634 71.9691 177.617 69.4585C177.579 63.6304 177.527 53.7511 177.587 49.4106C179.821 50.3568 186.032 52.1758 196.891 49.5391Z" fill="#ECF6FA" stroke="#ECF6FA" stroke-miterlimit="10"/>
<path opacity="0.83" d="M193.808 54.9134V68.0501C193.808 68.5184 193.19 68.9326 192.287 69.0623C189.903 69.4057 185.051 69.8884 180.158 69.0899C179.282 68.947 178.683 68.5436 178.683 68.0837V54.8078C178.683 54.1534 179.864 53.6563 181.158 53.768C183.695 53.9865 187.758 54.2158 191.3 53.8784C192.604 53.7536 193.808 54.253 193.808 54.9134Z" fill="#4577A2" stroke="#4577A2" stroke-miterlimit="10"/>
<path opacity="0.86" d="M180.942 59.9359H184.187V55.7611C184.187 55.4057 184.491 55.1163 184.866 55.1163H187.046C187.422 55.1163 187.726 55.4045 187.726 55.7611V59.9359H192.027C192.402 59.9359 192.706 60.2241 192.706 60.5807V62.7347C192.706 63.0901 192.402 63.3795 192.027 63.3795H187.726V67.547C187.726 67.9024 187.422 68.1918 187.046 68.1918H184.866C184.491 68.1918 184.187 67.9037 184.187 67.547V63.3795H180.942C180.567 63.3795 180.263 63.0913 180.263 62.7347V60.5807C180.263 60.2241 180.567 59.9359 180.942 59.9359Z" fill="#ECF6FA" stroke="#ECF6FA" stroke-miterlimit="10"/>
<path opacity="0.83" d="M211.19 149.476C213.433 149.476 215.253 149.907 215.253 150.439V152.857C215.253 153.649 214.576 154.292 213.74 154.292H208.64C207.805 154.292 207.128 153.649 207.128 152.857V150.439C207.126 149.907 208.946 149.476 211.19 149.476Z" fill="#4577A2" stroke="#4577A2" stroke-miterlimit="10"/>
<path d="M214.704 150.72C214.704 150.72 211.404 151.858 207.861 150.72" stroke="black" stroke-width="2" stroke-miterlimit="10"/>
<path opacity="0.83" d="M207.509 158.745H214.875C215.835 158.745 216.62 157.96 216.62 156.999V154.898C216.62 153.938 215.835 153.152 214.875 153.152H207.509C206.549 153.152 205.764 153.938 205.764 154.898V156.999C205.764 157.959 206.549 158.745 207.509 158.745Z" fill="#548DB0" stroke="#548DB0" stroke-miterlimit="10"/>
<path opacity="0.83" d="M202.394 162.864C203.223 160.759 205.908 157.516 205.908 157.516H211.192H216.476C216.476 157.516 219.149 160.746 219.984 162.852C217.362 163.714 210.375 165.455 202.394 162.864Z" fill="#4577A2" stroke="#4577A2" stroke-miterlimit="10"/>
<path opacity="0.83" d="M202.394 162.864C210.374 165.455 217.362 163.714 219.984 162.85C220.111 163.172 220.197 163.469 220.222 163.722C220.25 163.998 220.27 164.717 220.284 165.745C210.055 168.228 204.206 166.515 202.101 165.625C202.115 164.662 202.134 163.987 202.16 163.722C202.187 163.472 202.269 163.181 202.394 162.864Z" fill="#548DB0" stroke="#548DB0" stroke-miterlimit="10"/>
<path opacity="0.86" d="M220.284 165.745C220.338 169.892 220.29 179.072 220.254 184.507C220.238 186.871 218.213 188.779 215.72 188.779H211.192H206.664C204.171 188.779 202.146 186.871 202.13 184.507C202.094 179.018 202.045 169.712 202.103 165.624C204.206 166.516 210.055 168.229 220.284 165.745Z" fill="#ECF6FA" stroke="#ECF6FA" stroke-miterlimit="10"/>
<path opacity="0.83" d="M217.381 170.808V183.183C217.381 183.623 216.799 184.014 215.949 184.136C213.703 184.459 209.133 184.914 204.525 184.161C203.7 184.027 203.136 183.646 203.136 183.214V170.708C203.136 170.092 204.249 169.623 205.467 169.728C207.856 169.933 211.684 170.151 215.02 169.831C216.246 169.715 217.381 170.185 217.381 170.808Z" fill="#4577A2" stroke="#4577A2" stroke-miterlimit="10"/>
<path opacity="0.86" d="M205.262 175.538H208.318V171.606C208.318 171.271 208.605 170.998 208.958 170.998H211.011C211.365 170.998 211.65 171.27 211.65 171.606V175.538H215.701C216.055 175.538 216.34 175.809 216.34 176.146V178.174C216.34 178.509 216.053 178.781 215.701 178.781H211.65V182.706C211.65 183.041 211.364 183.314 211.011 183.314H208.958C208.604 183.314 208.318 183.042 208.318 182.706V178.781H205.262C204.908 178.781 204.622 178.51 204.622 178.174V176.146C204.622 175.811 204.908 175.538 205.262 175.538Z" fill="#ECF6FA" stroke="#ECF6FA" stroke-miterlimit="10"/>
<path opacity="0.86" d="M95.4629 51.2477C95.5362 49.5163 96.1928 48.4777 97.434 47.8545C98.6752 47.2314 99.2597 45.2839 99.2597 45.2839H102.911H106.563C106.563 45.2839 107.147 47.2314 108.389 47.8545C109.63 48.4777 110.288 49.5163 110.36 51.2477C110.414 52.53 110.387 61.9854 110.37 66.8002C110.364 68.3491 109.039 69.6002 107.407 69.6002H102.911H98.4159C96.7834 69.6002 95.4581 68.3479 95.4521 66.8002C95.4353 61.9866 95.4089 52.5312 95.4629 51.2477Z" fill="#ECF6FA" stroke="#ECF6FA" stroke-miterlimit="10"/>
<path opacity="0.83" d="M102.993 40.9866C105.895 40.9866 108.247 41.4285 108.247 41.9736V44.4518C108.247 45.2635 107.371 45.9215 106.29 45.9215H99.6943C98.614 45.9215 97.7377 45.2635 97.7377 44.4518V41.9736C97.7389 41.4285 100.092 40.9866 102.993 40.9866Z" fill="#548DB0" stroke="#548DB0" stroke-miterlimit="10"/>
<path d="M107.54 42.2606C107.54 42.2606 103.273 43.4265 98.6896 42.2606" stroke="black" stroke-width="2" stroke-miterlimit="10"/>
<path opacity="0.83" d="M106.971 52.781V64.0818C106.971 64.4853 106.543 64.8407 105.917 64.9523C104.264 65.2477 100.901 65.6631 97.5084 64.9763C96.9011 64.8539 96.4857 64.5057 96.4857 64.1106V52.6885C96.4857 52.1254 97.3044 51.698 98.2011 51.794C99.9596 51.9813 102.777 52.1794 105.232 51.8889C106.136 51.7832 106.971 52.2131 106.971 52.781Z" fill="#548DB0" stroke="#548DB0" stroke-miterlimit="10"/>
<path opacity="0.83" d="M105.395 54.1906V62.7947C105.395 63.1009 105.068 63.3722 104.592 63.4575C103.334 63.682 100.772 63.999 98.1902 63.4755C97.7281 63.3819 97.4124 63.1177 97.4124 62.8163V54.121C97.4124 53.6923 98.0354 53.3669 98.7184 53.4402C100.057 53.5831 102.202 53.7331 104.071 53.5122C104.759 53.4306 105.395 53.7584 105.395 54.1906Z" fill="#4577A2" stroke="#4577A2" stroke-miterlimit="10"/>
<path opacity="0.86" d="M111.037 98.8081C111.11 97.0767 111.766 96.0381 113.008 95.415C114.249 94.7918 114.833 92.8443 114.833 92.8443H118.485H122.137C122.137 92.8443 122.721 94.7918 123.962 95.415C125.204 96.0381 125.861 97.0767 125.933 98.8081C125.987 100.09 125.961 109.546 125.944 114.361C125.938 115.909 124.613 117.161 122.98 117.161H118.485H113.99C112.357 117.161 111.032 115.908 111.026 114.361C111.009 109.546 110.983 100.09 111.037 98.8081Z" fill="#ECF6FA" stroke="#ECF6FA" stroke-miterlimit="10"/>
<path opacity="0.83" d="M118.567 88.5458C121.469 88.5458 123.821 88.9877 123.821 89.5328V92.011C123.821 92.8227 122.944 93.4807 121.864 93.4807H115.268C114.188 93.4807 113.311 92.8227 113.311 92.011V89.5328C113.313 88.9889 115.665 88.5458 118.567 88.5458Z" fill="#548DB0" stroke="#548DB0" stroke-miterlimit="10"/>
<path d="M123.114 89.8198C123.114 89.8198 118.846 90.9856 114.263 89.8198" stroke="black" stroke-width="2" stroke-miterlimit="10"/>
<path opacity="0.83" d="M122.545 100.34V111.641C122.545 112.045 122.116 112.4 121.491 112.512C119.838 112.807 116.474 113.222 113.082 112.536C112.475 112.413 112.059 112.065 112.059 111.67V100.248C112.059 99.6846 112.878 99.2572 113.775 99.3532C115.533 99.5405 118.351 99.7387 120.805 99.4481C121.709 99.3424 122.545 99.7723 122.545 100.34Z" fill="#548DB0" stroke="#548DB0" stroke-miterlimit="10"/>
<path opacity="0.83" d="M120.967 101.751V110.355C120.967 110.661 120.641 110.933 120.164 111.018C118.906 111.242 116.345 111.559 113.763 111.036C113.301 110.942 112.985 110.678 112.985 110.377V101.681C112.985 101.253 113.608 100.927 114.291 101.001C115.629 101.143 117.774 101.294 119.643 101.073C120.332 100.991 120.967 101.318 120.967 101.751Z" fill="#4577A2" stroke="#4577A2" stroke-miterlimit="10"/>
<path opacity="0.86" d="M154.09 46.8904C154.193 44.4446 155.121 42.9774 156.875 42.0961C158.628 41.216 159.453 38.4652 159.453 38.4652H164.611H169.769C169.769 38.4652 170.594 41.216 172.347 42.0961C174.101 42.9762 175.029 44.4446 175.132 46.8904C175.209 48.7022 175.172 62.0599 175.148 68.8606C175.141 71.0482 173.268 72.8168 170.962 72.8168H164.612H158.262C155.956 72.8168 154.084 71.0482 154.076 68.8606C154.05 62.0599 154.013 48.7022 154.09 46.8904Z" fill="#ECF6FA" stroke="#ECF6FA" stroke-miterlimit="10"/>
<path opacity="0.83" d="M164.726 32.3945C168.826 32.3945 172.148 33.0189 172.148 33.7885V37.2885C172.148 38.4352 170.911 39.3645 169.385 39.3645H160.068C158.541 39.3645 157.304 38.4352 157.304 37.2885V33.7885C157.304 33.0189 160.627 32.3945 164.726 32.3945Z" fill="#548DB0" stroke="#548DB0" stroke-miterlimit="10"/>
<path d="M171.148 34.1944C171.148 34.1944 165.12 35.8417 158.645 34.1944" stroke="black" stroke-width="2" stroke-miterlimit="10"/>
<path opacity="0.83" d="M170.345 49.0553V65.0196C170.345 65.5887 169.74 66.0918 168.856 66.2503C166.521 66.6669 161.768 67.2541 156.978 66.2839C156.119 66.1098 155.534 65.6199 155.534 65.0616V48.9268C155.534 48.1319 156.691 47.528 157.957 47.6637C160.441 47.929 164.421 48.2088 167.889 47.7969C169.165 47.6456 170.345 48.2532 170.345 49.0553Z" fill="#548DB0" stroke="#548DB0" stroke-miterlimit="10"/>
<path opacity="0.83" d="M168.119 51.0472V63.2017C168.119 63.6352 167.658 64.0182 166.984 64.1383C165.206 64.4553 161.59 64.9019 157.942 64.1635C157.289 64.0314 156.842 63.658 156.842 63.233V50.9499C156.842 50.3448 157.723 49.8849 158.687 49.9882C160.579 50.1899 163.608 50.4024 166.248 50.0902C167.219 49.9738 168.119 50.436 168.119 51.0472Z" fill="#4577A2" stroke="#4577A2" stroke-miterlimit="10"/>
<path opacity="0.86" d="M178.726 106.944C178.82 104.72 179.664 103.385 181.259 102.584C182.853 101.783 183.605 99.2824 183.605 99.2824H188.294H192.984C192.984 99.2824 193.735 101.783 195.329 102.584C196.923 103.385 197.768 104.719 197.862 106.944C197.931 108.591 197.898 120.737 197.876 126.922C197.869 128.912 196.167 130.519 194.07 130.519H188.294H182.519C180.422 130.519 178.72 128.912 178.713 126.922C178.69 120.737 178.657 108.591 178.726 106.944Z" fill="#ECF6FA" stroke="#ECF6FA" stroke-miterlimit="10"/>
<path opacity="0.83" d="M188.398 93.7628C192.125 93.7628 195.147 94.3308 195.147 95.0308V98.2138C195.147 99.256 194.023 100.101 192.634 100.101H184.162C182.774 100.101 181.648 99.256 181.648 98.2138V95.0308C181.648 94.3308 184.671 93.7628 188.398 93.7628Z" fill="#548DB0" stroke="#548DB0" stroke-miterlimit="10"/>
<path d="M194.238 95.3982C194.238 95.3982 188.757 96.8966 182.869 95.3982" stroke="black" stroke-width="2" stroke-miterlimit="10"/>
<path opacity="0.83" d="M193.507 108.913V123.429C193.507 123.947 192.957 124.404 192.153 124.548C190.029 124.928 185.709 125.461 181.353 124.578C180.572 124.42 180.039 123.975 180.039 123.467V108.795C180.039 108.073 181.091 107.524 182.243 107.646C184.502 107.888 188.12 108.141 191.275 107.768C192.433 107.631 193.507 108.183 193.507 108.913Z" fill="#548DB0" stroke="#548DB0" stroke-miterlimit="10"/>
<path opacity="0.83" d="M191.483 110.724V121.776C191.483 122.17 191.064 122.518 190.452 122.627C188.836 122.916 185.546 123.323 182.229 122.65C181.635 122.53 181.229 122.19 181.229 121.804V110.634C181.229 110.084 182.03 109.666 182.907 109.76C184.627 109.943 187.382 110.137 189.783 109.852C190.665 109.748 191.483 110.168 191.483 110.724Z" fill="#4577A2" stroke="#4577A2" stroke-miterlimit="10"/>
<path opacity="0.86" d="M180.757 159.745C180.851 157.522 181.695 156.187 183.29 155.386C184.884 154.585 185.636 152.084 185.636 152.084H190.326H195.016C195.016 152.084 195.766 154.585 197.36 155.386C198.954 156.187 199.799 157.52 199.893 159.745C199.962 161.393 199.929 173.539 199.907 179.724C199.9 181.713 198.198 183.321 196.101 183.321H190.326H184.551C182.454 183.321 180.751 181.713 180.744 179.724C180.721 173.539 180.689 161.393 180.757 159.745Z" fill="#ECF6FA" stroke="#ECF6FA" stroke-miterlimit="10"/>
<path opacity="0.83" d="M190.43 146.564C194.157 146.564 197.18 147.132 197.18 147.832V151.015C197.18 152.057 196.055 152.903 194.666 152.903H186.194C184.806 152.903 183.68 152.057 183.68 151.015V147.832C183.68 147.132 186.703 146.564 190.43 146.564Z" fill="#548DB0" stroke="#548DB0" stroke-miterlimit="10"/>
<path d="M196.27 148.201C196.27 148.201 190.789 149.699 184.901 148.201" stroke="black" stroke-width="2" stroke-miterlimit="10"/>
<path opacity="0.83" d="M195.539 161.714V176.231C195.539 176.748 194.989 177.206 194.185 177.35C192.061 177.729 187.741 178.262 183.385 177.38C182.605 177.221 182.072 176.776 182.072 176.268V161.597C182.072 160.874 183.123 160.325 184.276 160.448C186.535 160.689 190.153 160.942 193.307 160.569C194.466 160.432 195.539 160.984 195.539 161.714Z" fill="#548DB0" stroke="#548DB0" stroke-miterlimit="10"/>
<path opacity="0.83" d="M193.514 163.525V174.577C193.514 174.971 193.095 175.319 192.483 175.429C190.867 175.718 187.577 176.124 184.26 175.452C183.666 175.331 183.26 174.992 183.26 174.605V163.435C183.26 162.885 184.061 162.467 184.938 162.561C186.658 162.745 189.413 162.938 191.814 162.653C192.697 162.549 193.514 162.969 193.514 163.525Z" fill="#4577A2" stroke="#4577A2" stroke-miterlimit="10"/>
<path opacity="0.86" d="M114.934 70.0432H118.198C119.723 70.0432 120.959 68.8065 120.959 67.2817V56.4082C120.959 54.8834 119.723 53.6467 118.198 53.6467H114.934C113.41 53.6467 112.174 54.8834 112.174 56.4082V67.2817C112.174 68.8065 113.41 70.0432 114.934 70.0432Z" fill="#ECF6FA" stroke="#ECF6FA" stroke-miterlimit="10"/>
<path d="M116.484 50.3424C118.204 50.3424 119.599 50.6726 119.599 51.0808V52.9347C119.599 53.5422 119.079 54.0345 118.44 54.0345H114.529C113.888 54.0345 113.369 53.5422 113.369 52.9347V51.0808C113.369 50.6738 114.764 50.3424 116.484 50.3424Z" fill="#EA695E" stroke="#EA695E" stroke-miterlimit="10"/>
<path d="M119.179 51.2958C119.179 51.2958 116.65 52.1687 113.932 51.2958" stroke="black" stroke-width="2" stroke-miterlimit="10"/>
<path opacity="0.83" d="M118.485 57.9439V66.4016C118.485 66.703 118.276 66.9695 117.97 67.0536C117.164 67.2745 115.523 67.5855 113.867 67.0716C113.571 66.9791 113.368 66.7198 113.368 66.4244V57.8767C113.368 57.4553 113.768 57.1359 114.205 57.2079C115.063 57.3484 116.437 57.4961 117.635 57.2788C118.078 57.1971 118.485 57.5177 118.485 57.9439Z" fill="#548DB0" stroke="#548DB0" stroke-miterlimit="10"/>
<path opacity="0.86" d="M85.8214 113.049H89.0853C90.6098 113.049 91.8462 111.813 91.8462 110.288V99.4145C91.8462 97.8896 90.6098 96.6529 89.0853 96.6529H85.8214C84.2969 96.6529 83.0605 97.8896 83.0605 99.4145V110.288C83.0605 111.814 84.2957 113.049 85.8214 113.049Z" fill="#ECF6FA" stroke="#ECF6FA" stroke-miterlimit="10"/>
<path d="M87.3711 93.3498C89.0913 93.3498 90.4861 93.68 90.4861 94.0882V95.9421C90.4861 96.5496 89.9663 97.0419 89.3265 97.0419H85.4169C84.7759 97.0419 84.2573 96.5496 84.2573 95.9421V94.0882C84.2561 93.68 85.6498 93.3498 87.3711 93.3498Z" fill="#EA695E" stroke="#EA695E" stroke-miterlimit="10"/>
<path d="M90.066 94.3031C90.066 94.3031 87.5368 95.176 84.8191 94.3031" stroke="black" stroke-width="2" stroke-miterlimit="10"/>
<path opacity="0.83" d="M89.3721 100.95V109.408C89.3721 109.709 89.1632 109.976 88.8571 110.06C88.0505 110.281 86.4096 110.592 84.7542 110.078C84.4577 109.985 84.2549 109.726 84.2549 109.431V100.882C84.2549 100.46 84.6546 100.141 85.0915 100.213C85.9498 100.353 87.3243 100.501 88.5222 100.284C88.964 100.203 89.3721 100.525 89.3721 100.95Z" fill="#548DB0" stroke="#548DB0" stroke-miterlimit="10"/>
<path opacity="0.86" d="M89.0325 151.505H92.2964C93.8209 151.505 95.0573 150.268 95.0573 148.743V137.87C95.0573 136.345 93.8209 135.108 92.2964 135.108H89.0325C87.508 135.108 86.2716 136.345 86.2716 137.87V148.743C86.2728 150.268 87.508 151.505 89.0325 151.505Z" fill="#ECF6FA" stroke="#ECF6FA" stroke-miterlimit="10"/>
<path d="M90.5822 131.804C92.3023 131.804 93.6972 132.134 93.6972 132.543V134.396C93.6972 135.004 93.1774 135.496 92.5376 135.496H88.628C87.987 135.496 87.4684 135.004 87.4684 134.396V132.543C87.4684 132.134 88.862 131.804 90.5822 131.804Z" fill="#EA695E" stroke="#EA695E" stroke-miterlimit="10"/>
<path d="M93.2783 132.758C93.2783 132.758 90.7491 133.63 88.0314 132.758" stroke="black" stroke-width="2" stroke-miterlimit="10"/>
<path opacity="0.83" d="M92.5844 139.405V147.862C92.5844 148.164 92.3755 148.43 92.0694 148.514C91.2628 148.735 89.6218 149.046 87.9665 148.532C87.67 148.44 87.4672 148.18 87.4672 147.885V139.337C87.4672 138.916 87.8669 138.596 88.3038 138.669C89.1621 138.809 90.5365 138.957 91.7345 138.739C92.1762 138.658 92.5844 138.98 92.5844 139.405Z" fill="#548DB0" stroke="#548DB0" stroke-miterlimit="10"/>
<path opacity="0.86" d="M145.299 72.07H149.238C151.078 72.07 152.57 70.5776 152.57 68.7369V55.6134C152.57 53.7728 151.078 52.2803 149.238 52.2803H145.299C143.459 52.2803 141.967 53.7728 141.967 55.6134V68.7369C141.968 70.5776 143.459 72.07 145.299 72.07Z" fill="#ECF6FA" stroke="#ECF6FA" stroke-miterlimit="10"/>
<path d="M147.171 48.2928C149.247 48.2928 150.93 48.6914 150.93 49.1837V51.4218C150.93 52.1554 150.304 52.7498 149.531 52.7498H144.812C144.039 52.7498 143.412 52.1554 143.412 51.4218V49.1837C143.411 48.6926 145.094 48.2928 147.171 48.2928Z" fill="#EA695E" stroke="#EA695E" stroke-miterlimit="10"/>
<path d="M150.422 49.4431C150.422 49.4431 147.37 50.496 144.09 49.4431" stroke="black" stroke-width="2" stroke-miterlimit="10"/>
<path opacity="0.83" d="M149.585 57.4661V67.6731C149.585 68.0369 149.333 68.3587 148.964 68.4596C147.991 68.7261 146.01 69.1019 144.013 68.4812C143.655 68.3695 143.41 68.0561 143.41 67.6995V57.3832C143.41 56.8753 143.892 56.4887 144.421 56.5752C145.457 56.7444 147.116 56.9233 148.561 56.6604C149.094 56.5655 149.585 56.9534 149.585 57.4661Z" fill="#548DB0" stroke="#548DB0" stroke-miterlimit="10"/>
<path opacity="0.86" d="M151.592 125.178H155.53C157.37 125.178 158.862 123.685 158.862 121.844V108.722C158.862 106.882 157.37 105.389 155.53 105.389H151.592C149.751 105.389 148.259 106.882 148.259 108.722V121.846C148.261 123.685 149.751 125.178 151.592 125.178Z" fill="#ECF6FA" stroke="#ECF6FA" stroke-miterlimit="10"/>
<path d="M153.463 101.402C155.54 101.402 157.223 101.8 157.223 102.293V104.531C157.223 105.264 156.596 105.859 155.823 105.859H151.104C150.331 105.859 149.705 105.264 149.705 104.531V102.293C149.703 101.8 151.386 101.402 153.463 101.402Z" fill="#EA695E" stroke="#EA695E" stroke-miterlimit="10"/>
<path d="M156.715 102.552C156.715 102.552 153.662 103.605 150.383 102.552" stroke="black" stroke-width="2" stroke-miterlimit="10"/>
<path opacity="0.83" d="M155.878 110.575V120.782C155.878 121.146 155.626 121.468 155.258 121.568C154.284 121.835 152.303 122.211 150.306 121.59C149.948 121.478 149.703 121.165 149.703 120.808V110.492C149.703 109.984 150.186 109.598 150.714 109.684C151.75 109.853 153.409 110.032 154.854 109.769C155.386 109.673 155.878 110.061 155.878 110.575Z" fill="#548DB0" stroke="#548DB0" stroke-miterlimit="10"/>
<path opacity="0.86" d="M204.937 74.7968H210.686C213.373 74.7968 215.55 72.6187 215.55 69.9316V50.7758C215.55 48.0887 213.373 45.9106 210.686 45.9106H204.937C202.25 45.9106 200.073 48.0887 200.073 50.7758V69.9316C200.073 72.6187 202.25 74.7968 204.937 74.7968Z" fill="#ECF6FA" stroke="#ECF6FA" stroke-miterlimit="10"/>
<path d="M207.666 40.0885C210.697 40.0885 213.153 40.6709 213.153 41.3901V44.6571C213.153 45.727 212.239 46.5951 211.11 46.5951H204.221C203.093 46.5951 202.178 45.727 202.178 44.6571V41.3901C202.179 40.6721 204.635 40.0885 207.666 40.0885Z" fill="#EA695E" stroke="#EA695E" stroke-miterlimit="10"/>
<path d="M212.415 41.7683C212.415 41.7683 207.959 43.3064 203.172 41.7683" stroke="black" stroke-width="2" stroke-miterlimit="10"/>
<path opacity="0.83" d="M211.192 53.4798V68.3791C211.192 68.9098 210.823 69.3793 210.286 69.527C208.864 69.916 205.974 70.4635 203.058 69.5582C202.536 69.3961 202.179 68.9386 202.179 68.4175V53.3597C202.179 52.6177 202.883 52.0546 203.655 52.1806C205.166 52.428 207.588 52.6885 209.699 52.3055C210.474 52.1638 211.192 52.7305 211.192 53.4798Z" fill="#548DB0" stroke="#548DB0" stroke-miterlimit="10"/>
<path opacity="0.86" d="M228.392 193.68H234.142C236.829 193.68 239.006 191.502 239.006 188.815V169.659C239.006 166.972 236.829 164.794 234.142 164.794H228.392C225.706 164.794 223.528 166.972 223.528 169.659V188.815C223.528 191.502 225.706 193.68 228.392 193.68Z" fill="#ECF6FA" stroke="#ECF6FA" stroke-miterlimit="10"/>
<path d="M231.122 158.973C234.153 158.973 236.609 159.556 236.609 160.275V163.542C236.609 164.612 235.694 165.48 234.566 165.48H227.677C226.548 165.48 225.634 164.612 225.634 163.542V160.275C225.635 159.556 228.091 158.973 231.122 158.973Z" fill="#EA695E" stroke="#EA695E" stroke-miterlimit="10"/>
<path d="M235.871 160.652C235.871 160.652 231.415 162.19 226.628 160.652" stroke="black" stroke-width="2" stroke-miterlimit="10"/>
<path opacity="0.83" d="M234.648 172.363V187.263C234.648 187.793 234.279 188.263 233.741 188.411C232.32 188.8 229.429 189.347 226.514 188.442C225.992 188.28 225.635 187.822 225.635 187.301V172.242C225.635 171.5 226.338 170.937 227.11 171.063C228.622 171.31 231.044 171.571 233.154 171.188C233.93 171.047 234.648 171.614 234.648 172.363Z" fill="#548DB0" stroke="#548DB0" stroke-miterlimit="10"/>
<path opacity="0.86" d="M204.937 133.519H210.686C213.373 133.519 215.55 131.341 215.55 128.654V109.498C215.55 106.811 213.373 104.633 210.686 104.633H204.937C202.25 104.633 200.073 106.811 200.073 109.498V128.654C200.073 131.341 202.25 133.519 204.937 133.519Z" fill="#ECF6FA" stroke="#ECF6FA" stroke-miterlimit="10"/>
<path d="M207.666 98.8117C210.697 98.8117 213.153 99.3941 213.153 100.113V103.379C213.153 104.449 212.239 105.317 211.11 105.317H204.221C203.093 105.317 202.178 104.449 202.178 103.379V100.112C202.179 99.3941 204.635 98.8117 207.666 98.8117Z" fill="#EA695E" stroke="#EA695E" stroke-miterlimit="10"/>
<path d="M212.415 100.49C212.415 100.49 207.959 102.028 203.172 100.49" stroke="black" stroke-width="2" stroke-miterlimit="10"/>
<path opacity="0.83" d="M211.192 112.202V127.101C211.192 127.632 210.823 128.101 210.286 128.249C208.864 128.638 205.974 129.186 203.058 128.28C202.536 128.118 202.179 127.661 202.179 127.14V112.082C202.179 111.34 202.883 110.777 203.655 110.903C205.166 111.15 207.588 111.411 209.699 111.028C210.474 110.886 211.192 111.453 211.192 112.202Z" fill="#548DB0" stroke="#548DB0" stroke-miterlimit="10"/>
<path opacity="0.67" d="M267.189 12.5063L229.65 20.6902L224.575 200.481L263.557 183.428L267.189 12.5063Z" fill="#ECF9FD"/>
<path opacity="0.1" d="M64.8892 29.6293V149.499L224.575 200.481L229.65 20.6902L64.8892 29.6293Z" fill="white" stroke="white" stroke-miterlimit="10"/>
<path opacity="0.47" d="M94.5446 158.745L64.8892 149.499L133.312 26.1054L168.445 24.0114L94.5446 158.745Z" fill="white" stroke="white" stroke-width="1.0878" stroke-miterlimit="10"/>
<path opacity="0.47" d="M194.667 190.933L165.748 181.7L228.325 67.6083L226.648 132.625L194.667 190.933Z" fill="white" stroke="white" stroke-width="1.0878" stroke-miterlimit="10"/>
<path opacity="0.47" d="M145.76 171.937L128.373 166.804L206.826 21.9282L228.51 21.0685L145.76 171.937Z" fill="white" stroke="white" stroke-width="0.8625" stroke-miterlimit="10"/>
<path opacity="0.47" d="M64.8892 92.9104V68.7874L87.0242 28.4287L100.662 27.689L64.8892 92.9104Z" fill="white" stroke="white" stroke-width="0.6788" stroke-miterlimit="10"/>
<path d="M139.782 259.693L15.575 169.228L60.0996 153.121L213.786 223.077L139.782 259.693Z" fill="#3B98D1" stroke="#3B98D1" stroke-miterlimit="10"/>
<path d="M139.782 259.693V272.195L213.786 230.899V223.077L139.782 259.693Z" fill="#396DA6" stroke="#396892" stroke-miterlimit="10"/>
<path d="M15.575 169.228L139.782 259.693V272.195L16.9398 174.711L15.575 169.228Z" fill="#396892" stroke="#396892" stroke-miterlimit="10"/>
<path opacity="0.46" d="M155.596 166.702L154.988 162.003C162.896 152.855 163.015 147.417 163.015 147.417C163.015 147.417 162.641 130.803 161.895 123.558C161.148 116.313 156.045 114.158 156.045 114.158C155.887 114.167 155.732 114.181 155.578 114.197L155.611 113.924L142.039 108.169C142.039 108.169 141.889 108.015 141.558 107.67C146.022 109.073 146.474 107.936 146.474 107.936C146.473 107.936 146.473 107.935 146.473 107.935C147.063 107.597 147.367 106.874 147.16 106.168C146.976 105.543 147.288 105.017 147.508 104.743C147.773 104.413 148.019 104.067 148.258 103.718L148.441 103.451C148.753 102.996 148.952 102.468 148.99 101.918C149.119 100.021 147.482 98.5224 146.291 97.6915C145.815 97.3601 145.305 97.084 144.776 96.8486C143.978 96.4944 142.037 95.2805 142.957 92.1179C143.129 91.5272 143.25 90.9472 143.331 90.3889C144.03 85.5249 141.336 80.7906 136.804 78.8899C136.781 78.8803 136.761 78.8719 136.739 78.8635C136.564 78.7915 136.386 78.7279 136.208 78.669C135.815 78.5393 134.354 77.969 133.171 76.3301C131.79 74.4186 130.118 74.0368 129.506 74.1124C128.895 74.1893 128.207 73.9599 128.207 73.9599C119.843 71.7771 114.824 78.1791 114.357 78.8035C114.595 78.4745 115.904 76.5786 114.321 76.7887C112.588 77.0181 113.433 79.4651 113.433 79.4651C113.433 79.4651 111.544 77.7829 110.551 79.0833C109.557 80.3824 112.232 80.5361 112.232 80.5361C111.774 80.6514 111.354 80.8423 110.98 81.0644C109.811 81.762 108.983 82.9122 108.637 84.2294C107.162 89.845 111.412 93.3942 113.188 94.5973C113.255 94.9167 113.328 95.2541 113.407 95.6047C113.207 96.7994 112.828 98.4155 112.155 99.2668C111.009 100.72 109.327 103.09 109.327 104.771C109.327 105.572 109.605 106.148 109.895 106.531C110.139 106.853 110.476 107.09 110.852 107.237C111.207 107.376 111.72 107.672 111.463 108.167C111.085 108.899 110.509 110.121 112.669 110.198C113.098 110.213 113.666 110.198 114.32 110.144C114.32 110.144 119.074 109.981 121.989 108.064C122.439 108.719 122.967 109.541 123.537 110.528C123.539 110.53 123.54 110.533 123.54 110.535L123.151 110.745L121.778 110.4C120.977 110.198 120.131 110.407 119.514 110.954C118.755 111.629 117.648 112.706 116.414 114.212L111.588 116.474C111.588 116.474 105.282 118.194 98.7472 130.006L94.2757 138.032C94.2757 138.032 93.3586 139.982 90.7214 139.179C88.0841 138.376 69.5034 130.955 69.5034 130.955C69.5034 130.955 69.1889 130.751 68.8744 130.694C68.6679 130.644 68.4723 130.648 68.3955 130.803C68.111 130.77 67.8421 130.909 67.5888 131.173C67.0174 130.762 66.6453 130.444 66.6453 130.444C66.6453 130.444 61.3036 126.387 59.5066 124.879C59.1693 124.595 58.8236 124.353 58.4839 124.146C57.3747 123.469 56.1323 123.062 54.8539 122.916C52.9309 122.695 48.0285 122.119 45.3793 121.706C42.035 121.187 42.3843 122.279 42.3843 122.279C43.8824 125.14 52.8169 125.66 52.8169 125.66C53.2898 126.088 53.7676 126.498 54.2309 126.886L52.3307 127.196C52.3307 127.196 50.9047 127.778 52.602 130.408C48.6083 129.344 48.4751 130.239 48.4751 130.239C47.2267 131.903 50.871 133.776 52.2683 134.088C53.357 134.33 54.4458 134.921 54.8731 135.17C55.5189 136.346 56.2776 137.32 57.0038 137.267C57.508 137.23 57.9209 137.076 58.2522 136.874C59.5126 137.366 60.7502 137.704 61.5028 137.677C62.9505 137.625 64.3982 138.665 64.3982 138.665L65.1004 139.3C64.8543 140.82 64.7271 141.931 64.7271 141.931C64.7271 141.931 64.6851 142.028 64.6743 142.178C64.6491 142.465 64.7235 142.942 65.3777 143.268C65.3777 143.268 65.7618 143.493 66.4796 143.884C70.2957 145.982 83.0497 152.635 96.7917 155.233C96.7917 155.233 100.358 156.073 102.753 152.404C104.223 150.303 108.578 143.282 111.162 139.09C111.7 143.291 113.988 147.129 113.988 147.129C114.906 149.116 114.447 151.333 114.447 151.333L114.529 176.336L122.108 179.661L122.103 179.739L122.185 179.776C121.033 180.634 119.157 182.019 118.509 182.422C118.509 182.422 116.997 183.27 117.77 184.273C117.515 184.628 117.399 185.096 117.873 185.595C118.055 185.787 118.27 185.93 118.502 186.039C117.991 187.176 117.712 188.174 117.975 188.684C117.83 189.269 117.83 189.739 118.052 190.004C118.963 191.091 121.59 187.439 122.769 185.672C121.654 187.905 120.148 191.071 120.575 192.28C120.454 192.918 120.471 193.427 120.702 193.716C120.702 193.716 121.84 195.885 126.48 186.1C125.71 188.138 124.822 190.752 125.141 191.661C125.01 192.462 125.056 193.039 125.41 193.165C126.819 193.667 127.912 191.085 129.991 186.77C129.662 188.054 129.297 189.718 129.454 190.682C129.347 191.723 129.446 192.561 130.027 192.661C131.498 192.914 131.991 189.874 133.198 186.135C133.305 185.814 133.415 185.482 133.531 185.144C133.549 185.091 133.568 185.038 133.586 184.985L134.891 185.608C134.891 185.608 134.897 185.599 134.905 185.583L151.662 190.398L155.596 166.702ZM149.673 117.757L146.706 112.647L149.673 117.757Z" fill="#3B56AE" stroke="#3B56AE" stroke-width="1.9736" stroke-miterlimit="10"/>
<path d="M146.29 99.2548C145.814 98.9234 145.304 98.6472 144.775 98.4119C143.976 98.0577 142.035 96.8438 142.956 93.6812C143.128 93.0905 143.249 92.5105 143.329 91.9522C144.029 87.0882 141.334 82.3539 136.803 80.4532C136.78 80.4436 136.76 80.4352 136.738 80.4268C136.563 80.3548 136.385 80.2911 136.206 80.2323C135.814 80.1026 134.353 79.5323 133.169 77.8934C131.789 75.9819 130.117 75.6001 129.505 75.6757C128.894 75.7525 128.206 75.5232 128.206 75.5232C119.842 73.3404 114.823 79.7424 114.356 80.3668C114.593 80.0378 115.903 78.1419 114.32 78.352C112.586 78.5814 113.431 81.0284 113.431 81.0284C113.431 81.0284 111.543 79.3462 110.549 80.6465C109.555 81.9457 112.231 82.0994 112.231 82.0994C111.773 82.2146 111.352 82.4055 110.979 82.6277C109.81 83.3253 108.982 84.4755 108.636 85.7927C106.787 92.8275 113.926 96.6205 113.926 96.6205L125.683 108.094C125.683 108.094 137.912 107.865 139.211 108.4C140.51 108.936 143.567 109.929 145.784 109.7C145.833 109.695 145.881 109.689 145.927 109.683C146.856 109.565 147.423 108.633 147.159 107.734C146.975 107.108 147.287 106.583 147.507 106.309C147.772 105.979 148.018 105.633 148.257 105.283L148.439 105.017C148.752 104.562 148.951 104.034 148.989 103.484C149.119 101.583 147.482 100.084 146.29 99.2548Z" fill="#FDE5D0" stroke="#FDE5D0" stroke-miterlimit="10"/>
<path d="M113.6 95.6863C113.6 95.6863 113.302 99.3748 112.155 100.828C111.009 102.281 109.327 104.651 109.327 106.332C109.327 107.132 109.605 107.709 109.895 108.092C110.139 108.414 110.476 108.651 110.852 108.798C111.207 108.937 111.72 109.232 111.463 109.728C111.085 110.46 110.509 111.682 112.669 111.759C114.83 111.836 120.499 111.148 123.168 108.624L116.97 96.6709L113.6 95.6863Z" fill="#FDE5D0" stroke="#FDE5D0" stroke-miterlimit="10"/>
<path d="M136.426 95.6863C136.426 95.6863 138.264 99.6438 142.752 100.377C144.284 100.628 145.623 101.595 146.225 103.026C146.622 103.97 146.768 105.187 146.272 106.689C146.272 106.689 145.718 108.991 146.474 109.497C146.474 109.497 145.921 110.892 139.974 108.686C134.028 106.481 131.094 106.154 131.094 106.154L131.854 97.9652L136.426 95.6863Z" fill="#FDBFAE" stroke="#FDBFAE" stroke-miterlimit="10"/>
<path d="M115.927 100.49C115.927 100.49 110.776 105.087 114.32 111.707C114.32 111.707 120.631 111.491 123.168 108.626L115.927 100.49Z" fill="#FDBFAE" stroke="#FDBFAE" stroke-miterlimit="10"/>
<path d="M127.518 114.742C129.581 113.443 135.008 110.308 135.008 110.308C135.819 109.86 136.448 109.463 136.937 109.122C136.536 108.691 135.989 108.019 135.475 107.113C135.32 106.842 135.169 106.549 135.025 106.236C134.174 104.379 133.599 101.797 134.321 98.5344L119.899 107.173C119.899 107.173 123.122 109.467 124.249 114.284L120.333 122.082L124.803 128.046L129.071 121.891L128.128 119.33C128.128 119.33 126.829 116.578 125.681 118.719C125.683 118.718 125.453 116.042 127.518 114.742Z" fill="#F6AD87" stroke="#F6AD87" stroke-miterlimit="10"/>
<path d="M136.871 94.2527C136.74 93.3798 136.071 92.669 135.198 92.5406C134.811 92.4841 134.376 92.5382 133.926 92.8131C133.592 93.0172 133.335 93.3258 133.169 93.6812C132.968 94.1123 132.537 94.769 131.854 94.5589C130.258 94.6418 129.317 91.2234 128.882 89.0526C128.734 88.3165 127.876 87.9647 127.265 88.4006C122.97 91.4599 118.486 90.2989 118.486 90.2989C118.065 90.2581 117.635 90.1848 117.197 90.0719C116.706 90.2917 116.229 90.521 115.782 90.7647C112.901 92.3388 113.195 96.1642 113.195 96.1642L113.185 96.1534C113.26 96.5088 113.341 96.8858 113.431 97.2797C114.207 100.662 115.578 105.208 117.561 106.638C119.275 107.875 121.572 107.863 123.378 107.568C124.953 107.311 126.452 106.713 127.778 105.827C128.29 105.486 128.889 105.072 129.506 104.617C131.522 103.131 133.729 101.202 133.688 99.9104C133.688 99.9104 137.479 98.3135 136.871 94.2527Z" fill="#F6AD87" stroke="#F6AD87" stroke-miterlimit="10"/>
<path d="M117.283 90.0335C117.933 89.9687 120.19 89.6409 121.802 88.1412C120.45 88.7788 118.802 89.3611 117.283 90.0335Z" fill="#F6AD87" stroke="#F6AD87" stroke-miterlimit="10"/>
<path d="M117.102 90.0479C117.133 90.0563 117.165 90.0635 117.196 90.0719C117.225 90.0587 117.255 90.0467 117.283 90.0335C117.167 90.0443 117.102 90.0479 117.102 90.0479Z" stroke="#EA695E" stroke-width="2" stroke-miterlimit="10"/>
<path d="M129.657 87.2455C129.645 87.1831 129.637 87.1219 129.632 87.0594C129.611 86.8109 129.457 86.0725 129.036 85.6966C128.705 85.4001 128.189 85.4529 127.901 85.7915C127.007 86.8409 123.315 90.7647 118.485 90.2989C118.485 90.2989 122.969 91.4599 127.263 88.4006C127.876 87.9647 128.733 88.3165 128.88 89.0526C129.316 91.2234 130.257 94.6418 131.853 94.5589C130.931 94.2744 129.831 88.1208 129.657 87.2455Z" fill="#EA695E" stroke="#EA695E" stroke-miterlimit="10"/>
<path d="M115.782 90.7647C116.228 90.521 116.705 90.2917 117.197 90.0719C117.166 90.0635 117.135 90.0563 117.103 90.0479C117.103 90.0479 117.168 90.0443 117.285 90.0335C118.802 89.3611 120.451 88.7788 121.803 88.1412C122.355 87.6273 122.832 86.9754 123.141 86.1493C123.141 86.1493 119.855 88.5963 117.41 88.9013C114.963 89.2074 112.747 91.1946 112.67 93.3354C112.67 93.3354 112.842 94.5013 113.187 96.1522L113.196 96.163C113.195 96.1642 112.901 92.3388 115.782 90.7647Z" fill="#EA695E" stroke="#EA695E" stroke-miterlimit="10"/>
<path d="M130.192 97.4261C128.206 94.1014 123.542 96.8522 119.645 97.6158C116.91 98.1525 114.579 97.635 113.431 97.2784C114.207 100.661 115.578 105.207 117.561 106.637C119.275 107.873 121.572 107.861 123.378 107.567C124.953 107.31 126.452 106.712 127.778 105.826C128.29 105.485 128.889 105.071 129.506 104.616C130.467 102.228 131.265 99.2211 130.192 97.4261Z" fill="#FCF4EE" stroke="#FCF4EE" stroke-miterlimit="10"/>
<path d="M128.206 95.9349L133.169 93.6812" stroke="white" stroke-width="3" stroke-miterlimit="10"/>
<path d="M130.084 102.622L133.688 99.9104" stroke="#FCF4EE" stroke-width="3" stroke-miterlimit="10"/>
<path d="M113.6 92.7999C113.6 92.7999 115.094 92.1215 116.194 92.9524" stroke="black" stroke-width="3" stroke-miterlimit="10"/>
<path d="M121.651 92.7399C121.651 92.7399 122.852 91.7157 124.663 92.4037" stroke="black" stroke-width="3" stroke-miterlimit="10"/>
<path d="M113.926 94.2035C113.926 94.2035 115.027 93.692 116.101 94.3284" stroke="black" stroke-width="3" stroke-miterlimit="10"/>
<path d="M122.086 94.0726C122.086 94.0726 122.748 93.4195 124.249 93.8373" stroke="black" stroke-width="3" stroke-miterlimit="10"/>
<path d="M115.428 95.457C115.428 95.8473 115.179 96.1642 114.873 96.1642C114.567 96.1642 114.319 95.8473 114.319 95.457C114.319 95.0668 114.567 94.7498 114.873 94.7498C115.179 94.7498 115.428 95.0668 115.428 95.457Z" fill="black" stroke="black" stroke-width="3" stroke-miterlimit="10"/>
<path d="M123.496 95.1904C123.496 95.5807 123.247 95.8976 122.941 95.8976C122.635 95.8976 122.386 95.5807 122.386 95.1904C122.386 94.8002 122.635 94.4832 122.941 94.4832C123.247 94.4832 123.496 94.799 123.496 95.1904Z" fill="black" stroke="black" stroke-width="3" stroke-miterlimit="10"/>
<path d="M118.932 95.6863V97.6591" stroke="black" stroke-width="3" stroke-miterlimit="10"/>
<path d="M118.932 98.5344C118.932 98.5344 118.804 103.58 120.868 107.173" stroke="black" stroke-width="3" stroke-miterlimit="10"/>
<path d="M123.619 121.087L125.675 126.787L124.803 138.905L117.237 120.699L121.222 117.111C121.223 117.111 122.811 117.03 123.619 121.087Z" fill="#406377" stroke="#5C8A92" stroke-miterlimit="10"/>
<path d="M125.683 118.718C125.683 118.718 123.727 131.109 124.249 136.958L136.426 124.988L130.705 115.564C130.705 115.563 126.938 114.698 125.683 118.718Z" fill="#5C8A92" stroke="#5C8A92" stroke-miterlimit="10"/>
<path d="M125.683 118.718L125.512 119.811C125.512 119.811 126.464 118.131 127.224 119.811C127.821 121.128 129.229 125.058 129.808 126.692C129.974 127.16 129.974 127.67 129.806 128.137L128.956 130.504L132.466 125.824L129.424 116.848H126.931C126.932 116.847 125.93 117.132 125.683 118.718Z" fill="#404F63" stroke="#5C8A92" stroke-miterlimit="10"/>
<path d="M122.341 119.603C122.341 119.603 123.134 119.742 123.619 121.087L123.844 121.708C123.844 121.708 122.43 119.424 123.092 124.368L122.341 119.603Z" fill="#404F63"/>
<path d="M142.039 109.73C142.039 109.73 141.483 109.16 140.128 107.732C139.154 106.705 136.462 106.352 135.024 106.234C135.168 106.548 135.319 106.841 135.474 107.112C136.288 107.099 137.426 107.165 138.225 107.558C138.392 107.639 138.432 107.859 138.303 107.995C138.082 108.228 137.666 108.612 136.936 109.12C136.446 109.462 135.817 109.858 135.007 110.306C135.007 110.306 129.58 113.441 127.517 114.74C125.453 116.039 125.683 118.716 125.683 118.716C126.829 116.575 128.129 119.327 128.129 119.327L129.072 121.888L131.339 128.042L143.491 113.287L142.039 109.73Z" fill="#4D7A7F" stroke="#4D7A7F" stroke-miterlimit="10"/>
<path d="M138.303 107.996C138.431 107.86 138.392 107.64 138.225 107.559C137.426 107.165 136.288 107.1 135.474 107.113C135.989 108.017 136.536 108.69 136.936 109.122C137.666 108.613 138.083 108.229 138.303 107.996Z" fill="#212840" stroke="#212840" stroke-miterlimit="10"/>
<path d="M123.541 112.097L118.93 114.589L118.04 117.111L118.498 121.927L120.868 124.985C120.868 124.985 120.899 119.787 122.068 119.634C122.068 119.634 123.084 119.252 123.619 121.087C123.619 121.087 123.271 119.411 124.157 116.922C124.383 116.287 124.457 115.606 124.369 114.937C124.265 114.136 124.037 113.061 123.541 112.097Z" fill="#4D7A7F" stroke="#4D7A7F" stroke-miterlimit="10"/>
<path d="M64.7284 143.488C64.7284 143.488 66.0272 132.097 68.3967 132.365C70.7663 132.633 74.2438 139.437 74.2438 139.437L70.4602 144.291L66.1796 144.636L64.9564 144.291C64.9576 144.29 64.6707 143.952 64.7284 143.488Z" fill="#212840" stroke="#212840" stroke-miterlimit="10"/>
<path d="M56.0075 128.155L52.3308 128.754C52.3308 128.754 50.5974 129.462 53.2238 132.837C53.2238 132.837 55.2129 138.955 57.005 138.825C58.7972 138.694 59.4214 137.082 59.4214 137.082L60.5774 130.659L56.0075 128.155Z" fill="#EA695E" stroke="#EA695E" stroke-miterlimit="10"/>
<path d="M68.9429 144.332L64.4006 140.223C64.4006 140.223 62.9529 139.184 61.5053 139.235C60.0576 139.287 56.813 137.987 55.0664 136.842C55.0664 136.842 53.6692 135.959 52.2707 135.646C50.8735 135.334 47.2291 133.462 48.4775 131.797C48.4775 131.797 48.6696 130.495 55.609 132.903C55.9931 133.036 56.4085 133.042 56.7926 132.911C57.2415 132.759 57.7793 132.122 58.1106 131.433C58.1106 131.433 55.4145 129.561 52.8193 127.22C52.8193 127.22 43.8837 126.7 42.3868 123.839C42.3868 123.839 42.0375 122.746 45.3817 123.266C48.031 123.678 52.9333 124.253 54.8564 124.475C56.1348 124.623 57.3772 125.029 58.4863 125.706C58.826 125.914 59.1717 126.156 59.509 126.438C61.306 127.946 66.6477 132.004 66.6477 132.004C66.6477 132.004 69.1433 134.136 71.1408 134.5L68.9429 144.332Z" fill="#F6AD87" stroke="#F6AD87" stroke-miterlimit="10"/>
<path d="M111.588 118.036C111.588 118.036 105.282 119.757 98.7471 131.568L94.2757 139.594C94.2757 139.594 93.3586 141.544 90.7214 140.741C88.0841 139.938 69.5034 132.517 69.5034 132.517C69.5034 132.517 68.5863 131.982 68.3954 132.365C68.3954 132.365 69.441 139.315 65.5877 143.831C65.4689 143.971 65.284 144.044 65.104 144.009C64.9275 143.976 64.7463 143.852 64.7271 143.488C64.7271 143.488 64.3826 144.329 65.3765 144.826C65.3765 144.826 79.2877 152.968 96.7905 156.79C96.7905 156.79 100.613 157.02 102.752 153.962C104.892 150.904 113.147 137.415 113.147 137.415L113.987 123.763L112.918 118.87L111.588 118.036Z" fill="#DFE5E5" stroke="#DFE5E5" stroke-miterlimit="10"/>
<path d="M111.588 118.036L117.031 115.484L125.674 138.497L123.901 182.006L110.612 176.177L114.446 152.891C114.446 152.891 114.904 150.673 113.987 148.686C113.987 148.686 110.165 142.275 111.236 136.956C112.308 131.637 112.398 120.489 111.588 118.036Z" fill="#DFE5E5" stroke="#DFE5E5" stroke-miterlimit="10"/>
<path d="M159.495 198.364L152.347 143.17L155.612 115.486L142.04 109.731L144.543 111.712C145.415 112.401 146.148 113.249 146.706 114.209L150.525 120.783L134.933 128.046L134.016 129.116L133.689 134.315L124.804 136.043L122.104 181.298L159.495 198.364Z" fill="#DFE5E5" stroke="#DFE5E5" stroke-miterlimit="10"/>
<path opacity="0.78" d="M154.988 163.564L132.747 179.371L133.396 186.451L134.892 187.165C134.892 187.165 137.427 182.54 142.349 179.371C147.27 176.201 156.972 178.899 156.972 178.899L154.988 163.564Z" fill="#D1D3D3"/>
<path opacity="0.36" d="M125.675 138.497L123.902 183.665L124.803 184.184L126.292 138.611C126.299 138.378 126.26 138.146 126.175 137.929L125.432 136.04H124.803L125.675 138.497Z" fill="#D1D3D3" stroke="#D1D3D3" stroke-width="1.1585" stroke-miterlimit="10"/>
<path d="M131.108 169.987C131.108 169.987 131.357 172.791 135.008 175.29C135.008 175.29 137 179.204 139.904 179.371L143.057 173.957L137.083 167.461L133.35 168.127C133.348 168.127 131.938 168.434 131.108 169.987Z" fill="#212840" stroke="#212840" stroke-miterlimit="10"/>
<path opacity="0.46" d="M138.805 168.938L134.325 168.663C134.325 168.663 132.497 171.966 129.937 174.444C127.505 176.798 124.25 179.235 122.284 182.461C121.145 183.311 119.176 184.767 118.509 185.181C118.509 185.181 116.872 186.098 117.873 187.153C118.183 187.479 118.588 187.67 119.001 187.777C118.147 189.412 117.562 190.976 118.052 191.562C119.24 192.98 123.354 186.327 123.354 186.327C123.354 186.327 124.085 185.226 123.857 186.144C123.629 187.061 119.561 193.852 120.702 195.275C120.702 195.275 121.921 197.599 126.98 186.588C126.98 186.588 127.422 185.916 127.468 186.213C127.513 186.511 123.994 194.22 125.41 194.725C126.827 195.231 127.924 192.614 130.027 188.256C130.027 188.256 130.393 187.43 130.438 187.751C130.484 188.073 128.427 193.946 130.027 194.221C131.627 194.496 132.069 190.879 133.531 186.704C134.994 182.53 136.568 178.444 138.35 177.205C140.133 175.965 141.93 174.103 141.93 174.103L138.805 168.938Z" fill="#3B56AE" stroke="#3B56AE" stroke-width="1.9736" stroke-miterlimit="10"/>
<path d="M123.126 180.63C123.126 180.63 119.469 183.383 118.509 183.98C118.509 183.98 116.872 184.897 117.873 185.953C118.875 187.008 120.886 186.641 120.886 186.641L123.902 182.006L123.126 180.63Z" fill="#EA695E" stroke="#EA695E" stroke-miterlimit="10"/>
<path d="M134.325 167.461C134.325 167.461 132.497 170.764 129.937 173.242C127.378 175.721 123.902 178.29 121.983 181.777C121.983 181.777 116.863 188.943 118.052 190.361C119.24 191.779 123.354 185.126 123.354 185.126C123.354 185.126 124.085 184.025 123.857 184.942C123.629 185.859 119.561 192.65 120.702 194.073C120.702 194.073 121.921 196.398 126.98 185.386C126.98 185.386 127.422 184.714 127.468 185.011C127.513 185.309 123.994 193.018 125.41 193.523C126.827 194.027 127.924 191.412 130.027 187.054C130.027 187.054 130.393 186.228 130.439 186.55C130.484 186.871 128.427 192.744 130.027 193.019C131.627 193.294 132.358 190.036 133.821 185.862C135.284 181.687 137.249 178.475 139.032 177.236C140.815 175.997 143.055 174.758 143.055 174.758L138.804 167.737L134.325 167.461Z" fill="#F6AD87" stroke="#F6AD87" stroke-miterlimit="10"/>
<path d="M156.045 115.719C156.045 115.719 161.148 117.874 161.895 125.119C162.641 132.364 163.015 148.978 163.015 148.978C163.015 148.978 162.89 154.724 154.303 164.343C145.717 173.962 142.232 177.834 142.232 177.834C142.232 177.834 140.844 179.204 139.904 179.371C139.904 179.371 140.844 175.651 135.866 171.875C135.866 171.875 131.772 168.654 131.108 169.987C131.108 169.987 130.777 169.488 133.265 166.434C135.755 163.381 145.592 150.602 145.592 150.602C145.592 150.602 147.396 147.854 147.054 137.486C147.054 137.486 144.099 116.437 156.045 115.719Z" fill="#DFE5E5" stroke="#DFE5E5" stroke-miterlimit="10"/>
<path d="M134.015 129.115L134.932 128.045L150.523 120.782L146.414 113.706C146.05 113.077 145.568 112.522 144.998 112.071L142.04 109.73C142.229 110.384 142.019 111.447 141.733 112.413C141.364 113.659 140.758 114.823 139.953 115.842L124.804 136.041L133.689 134.314L134.015 129.115Z" fill="#F7F7F7" stroke="#F7F7F7" stroke-miterlimit="10"/>
<path d="M123.168 112.312L121.778 111.962C120.977 111.76 120.131 111.969 119.514 112.516C118.168 113.711 115.733 116.171 113.432 120.034L118.929 126.578L119.418 127.567L118.299 130.89L124.803 136.516L121.954 116.947C121.774 115.711 122.001 114.451 122.599 113.354L123.168 112.312Z" fill="#F7F7F7" stroke="#F7F7F7" stroke-miterlimit="10"/>
<path d="M129.145 140.045C129.145 140.045 137.912 139.867 140.282 139.511V142.352C140.282 142.352 133.724 143.231 129.145 142.885V140.045Z" fill="#D1D3D3" stroke="#D1D3D3" stroke-width="1.2692" stroke-miterlimit="10"/>
<path d="M129.505 139.971C129.505 139.971 137.989 139.819 140.282 139.513V141.96C140.282 141.96 133.936 142.717 129.505 142.418V139.971Z" fill="#F7F7F7" stroke="#F7F7F7" stroke-miterlimit="10"/>
<path d="M113.508 138.259C113.508 138.259 118.586 139.558 121.222 139.558V142.133C121.222 142.133 115.722 142.358 113.508 140.905V138.259Z" fill="#D1D3D3" stroke="#D1D3D3" stroke-width="1.1585" stroke-miterlimit="10"/>
<path d="M113.988 138.289C113.988 138.289 118.749 139.513 121.222 139.513V141.653C121.222 141.653 116.064 141.738 113.988 140.584V138.289Z" fill="#F7F7F7" stroke="#F7F7F7" stroke-miterlimit="10"/>
<path d="M126.304 128.045C126.652 128.045 126.933 127.763 126.933 127.416C126.933 127.068 126.652 126.787 126.304 126.787C125.957 126.787 125.675 127.068 125.675 127.416C125.675 127.763 125.957 128.045 126.304 128.045Z" fill="#212840" stroke="#212840" stroke-miterlimit="10"/>
<path d="M125.432 141.239C125.432 141.586 125.151 141.868 124.803 141.868C124.455 141.868 124.174 141.587 124.174 141.239C124.174 140.892 124.455 140.61 124.803 140.61C125.151 140.61 125.432 140.892 125.432 141.239Z" fill="#D1D3D3" stroke="#D1D3D3" stroke-miterlimit="10"/>
<path d="M124.804 155.627C124.804 155.974 124.523 156.256 124.175 156.256C123.828 156.256 123.546 155.975 123.546 155.627C123.546 155.28 123.827 154.998 124.175 154.998C124.522 154.999 124.804 155.28 124.804 155.627Z" fill="#D1D3D3" stroke="#D1D3D3" stroke-miterlimit="10"/>
<path d="M123.546 170.017C123.893 170.017 124.175 169.736 124.175 169.388C124.175 169.041 123.893 168.759 123.546 168.759C123.199 168.759 122.917 169.041 122.917 169.388C122.917 169.736 123.199 170.017 123.546 170.017Z" fill="#D1D3D3" stroke="#D1D3D3" stroke-miterlimit="10"/>
<path d="M120.556 107.733C120.556 107.733 125.007 108.367 129.506 104.617L132.294 102.266C132.294 102.266 130.495 105.898 125.765 108.992C125.09 109.435 124.812 110.293 125.108 111.046C125.603 112.307 126.495 113.897 127.704 113.29C127.704 113.29 132.576 111.415 135.862 107.747L136.935 109.121C136.935 109.121 128.226 114.155 127.515 114.741C126.805 115.328 125.66 116.064 125.681 118.717L124.801 124.368L123.618 121.086C123.618 121.086 123.489 118.797 124.156 116.92C124.156 116.92 125.202 114.981 123.539 112.096C121.877 109.211 120.556 107.733 120.556 107.733Z" fill="#EA695E" stroke="#EA695E" stroke-miterlimit="10"/>
<path d="M136.34 94.4653C136.34 94.4653 134.9 93.0977 133.897 94.8495C132.893 96.6025 133.866 97.7516 133.866 97.7516" stroke="#EA695E" stroke-width="2" stroke-miterlimit="10"/>
<path d="M135.085 97.0299C134.914 97.6351 134.469 98.0385 134.093 97.9316C133.717 97.8248 133.551 97.2472 133.724 96.6421C133.896 96.037 134.34 95.6335 134.717 95.7404C135.092 95.8473 135.257 96.4248 135.085 97.0299Z" fill="#EA695E" stroke="#EA695E" stroke-miterlimit="10"/>
<path d="M132.674 170.017C132.674 170.017 137.728 172.173 139.679 176.798C139.679 176.798 138.279 177.742 137.684 178.504C137.684 178.504 137.32 173.929 131.973 170.953L132.674 170.017Z" fill="#EA695E" stroke="#EA695E" stroke-miterlimit="10"/>
<path d="M68.4772 133.145C68.4772 133.145 68.8865 137.972 66.6058 142.409L65.1017 140.859C65.1017 140.859 68.1038 137.102 67.6249 132.759L68.4772 133.145Z" fill="#EA695E" stroke="#EA695E" stroke-miterlimit="10"/>
<path d="M150.523 120.782L134.932 128.045L134.015 129.115L133.688 134.314L124.804 136.041L124.985 136.618L134.343 134.858L134.653 129.695L135.748 128.34L150.305 121.59L150.523 120.782Z" fill="#D1D3D3" stroke="#D1D3D3" stroke-miterlimit="10"/>
<path d="M113.431 120.034L118.93 126.578L119.419 127.567L118.3 130.889L124.985 136.618L125.27 137.415L117.726 131.141L118.822 127.603L118.432 126.788L113.551 120.789L113.431 120.034Z" fill="#D1D3D3" stroke="#D1D3D3" stroke-miterlimit="10"/>
<path d="M147.085 141.239V149.499C147.085 149.499 134.585 164.33 132.166 167.863C132.165 167.863 146.779 149.504 147.085 141.239Z" fill="#D1D3D3"/>
<path d="M68.3967 132.364C68.3967 132.364 69.1926 139.016 65.589 143.83C65.589 143.83 64.9516 144.333 64.7283 143.488C64.7283 143.488 64.3886 144.272 65.3777 144.826C66.3668 145.38 80.9227 153.789 96.7918 156.79C96.7918 156.79 100.358 157.63 102.753 153.962C105.148 150.294 111.268 140.474 111.268 140.474C111.268 140.474 110.777 139.384 111.639 134.339L112.057 128.699C112.057 128.699 103.298 152.253 92.8953 149.499C92.8953 149.499 73.646 146.625 69.507 132.517C69.5058 132.517 68.728 132.012 68.3967 132.364Z" fill="#D1D3D3" stroke="#D1D3D3" stroke-miterlimit="10"/>
<path opacity="0.46" d="M141.081 243.841C141.199 242.098 136.953 240.39 131.596 240.025C126.239 239.661 121.8 240.779 121.682 242.523C121.563 244.266 125.81 245.974 131.167 246.339C136.524 246.703 140.962 245.585 141.081 243.841Z" fill="#3B56AE" stroke="#3B56AE" stroke-miterlimit="10"/>
<path opacity="0.46" d="M154.42 222.73C154.509 221.416 151.31 220.129 147.274 219.855C143.238 219.581 139.893 220.423 139.804 221.736C139.715 223.049 142.915 224.336 146.951 224.611C150.987 224.885 154.331 224.043 154.42 222.73Z" fill="#3B56AE" stroke="#3B56AE" stroke-width="0.7534" stroke-miterlimit="10"/>
<path opacity="0.46" d="M153.227 241.172C157.272 241.172 160.551 240.105 160.551 238.789C160.551 237.473 157.272 236.406 153.227 236.406C149.181 236.406 145.902 237.473 145.902 238.789C145.902 240.105 149.181 241.172 153.227 241.172Z" fill="#3B56AE" stroke="#3B56AE" stroke-width="0.7534" stroke-miterlimit="10"/>
<path opacity="0.46" d="M109.583 223.228C111.728 220.624 106.692 212.928 98.334 206.038C89.976 199.148 81.4613 195.673 79.316 198.277C77.1707 200.881 82.2072 208.577 90.5652 215.467C98.9232 222.357 107.438 225.832 109.583 223.228Z" fill="#3B56AE" stroke="#3B56AE" stroke-width="1.9736" stroke-miterlimit="10"/>
<path d="M133.69 209.516C131.762 209.516 130.2 209.906 130.2 210.389V212.58C130.2 213.298 130.782 213.881 131.5 213.881H135.881C136.599 213.881 137.181 213.298 137.181 212.58V210.389C137.181 209.906 135.618 209.516 133.69 209.516Z" fill="#EA695E" stroke="#EA695E" stroke-miterlimit="10"/>
<path d="M130.67 210.643C130.67 210.643 133.504 211.674 136.55 210.643" stroke="black" stroke-width="2" stroke-miterlimit="10"/>
<path opacity="0.83" d="M136.811 217.914H130.563C129.717 217.914 129.023 217.221 129.023 216.373V214.386C129.023 213.54 129.716 212.846 130.563 212.846H136.811C137.658 212.846 138.351 213.539 138.351 214.386V216.373C138.351 217.221 137.659 217.914 136.811 217.914Z" fill="#4577A2" stroke="#4577A2" stroke-miterlimit="10"/>
<path d="M141.247 221.646C140.535 219.738 138.228 216.8 138.228 216.8H133.688H129.148C129.148 216.8 126.851 219.726 126.134 221.634C128.387 222.416 134.39 223.994 141.247 221.646Z" fill="#396892" stroke="#396892" stroke-miterlimit="10"/>
<path opacity="0.83" d="M141.247 221.646C134.39 223.994 128.387 222.416 126.135 221.634C126.026 221.925 125.951 222.193 125.93 222.424C125.906 222.673 125.889 223.327 125.877 224.257C134.665 226.507 139.69 224.955 141.498 224.148C141.486 223.275 141.47 222.664 141.447 222.424C141.426 222.197 141.354 221.933 141.247 221.646Z" fill="#4577A2" stroke="#4577A2" stroke-miterlimit="10"/>
<path opacity="0.99" d="M125.877 224.257C125.83 228.015 125.871 236.331 125.902 241.258C125.915 243.4 127.656 245.129 129.798 245.129H133.688H137.578C139.72 245.129 141.46 243.4 141.474 241.258C141.505 236.284 141.547 227.852 141.498 224.148C139.69 224.955 134.665 226.507 125.877 224.257Z" fill="#ECF6FA" stroke="#ECF6FA" stroke-miterlimit="10"/>
<path d="M127.585 228.784V239.996C127.585 240.396 128.086 240.749 128.816 240.86C130.745 241.153 134.671 241.565 138.631 240.883C139.341 240.761 139.824 240.417 139.824 240.025V228.694C139.824 228.135 138.869 227.711 137.821 227.806C135.768 227.992 132.479 228.189 129.614 227.9C128.56 227.793 127.585 228.219 127.585 228.784Z" fill="#396892" stroke="#396892" stroke-miterlimit="10"/>
<path opacity="0.86" d="M138.239 233.13H135.612V229.568C135.612 229.264 135.366 229.018 135.062 229.018H133.298C132.994 229.018 132.748 229.264 132.748 229.568V233.13H129.268C128.964 233.13 128.718 233.376 128.718 233.68V235.518C128.718 235.822 128.964 236.068 129.268 236.068H132.748V239.625C132.748 239.928 132.994 240.175 133.298 240.175H135.062C135.366 240.175 135.612 239.928 135.612 239.625V236.068H138.239C138.542 236.068 138.788 235.822 138.788 235.518V233.68C138.788 233.376 138.542 233.13 138.239 233.13Z" fill="#ECF6FA" stroke="#ECF6FA" stroke-miterlimit="10"/>
<path opacity="0.86" d="M154.651 207.17C154.591 205.684 154.057 204.793 153.046 204.257C152.036 203.722 151.56 202.052 151.56 202.052H148.589H145.618C145.618 202.052 145.143 203.723 144.132 204.257C143.122 204.793 142.588 205.684 142.527 207.17C142.483 208.271 142.505 216.385 142.519 220.518C142.524 221.847 143.602 222.922 144.931 222.922H148.589H152.248C153.577 222.922 154.655 221.847 154.66 220.518C154.674 216.385 154.696 208.271 154.651 207.17Z" fill="#ECF6FA" stroke="#ECF6FA" stroke-miterlimit="10"/>
<path d="M148.523 198.364C146.162 198.364 144.248 198.744 144.248 199.211V201.337C144.248 202.034 144.961 202.599 145.839 202.599H151.207C152.086 202.599 152.799 202.035 152.799 201.337V199.211C152.8 198.743 150.886 198.364 148.523 198.364Z" fill="#EA695E" stroke="#EA695E" stroke-miterlimit="10"/>
<path d="M144.824 199.457C144.824 199.457 148.297 200.458 152.026 199.457" stroke="black" stroke-width="2" stroke-miterlimit="10"/>
<path opacity="0.83" d="M144.49 208.486V218.185C144.49 218.531 144.838 218.837 145.348 218.932C146.693 219.185 149.431 219.542 152.191 218.952C152.685 218.847 153.022 218.549 153.022 218.21V208.408C153.022 207.925 152.356 207.558 151.626 207.641C150.196 207.802 147.903 207.972 145.905 207.722C145.17 207.629 144.49 207.997 144.49 208.486Z" fill="#548DB0" stroke="#548DB0" stroke-miterlimit="10"/>
<path d="M145.65 209.695V217.079C145.65 217.342 145.915 217.575 146.303 217.648C147.327 217.842 149.41 218.113 151.512 217.664C151.888 217.584 152.146 217.357 152.146 217.099V209.636C152.146 209.269 151.638 208.989 151.083 209.052C149.993 209.174 148.248 209.304 146.726 209.113C146.167 209.043 145.65 209.324 145.65 209.695Z" fill="#396892" stroke="#396892" stroke-miterlimit="10"/>
<path opacity="0.94" d="M157.268 239.513H153.082C150.978 239.513 149.272 237.807 149.272 235.702V220.086C149.272 217.981 150.978 216.275 153.082 216.275H157.268C159.373 216.275 161.078 217.981 161.078 220.086V235.702C161.079 237.807 159.374 239.513 157.268 239.513Z" fill="#ECF6FA" stroke="#ECF6FA" stroke-miterlimit="10"/>
<path d="M155.286 211.59C152.975 211.59 151.101 212.058 151.101 212.637V215.265C151.101 216.126 151.798 216.824 152.659 216.824H157.914C158.775 216.824 159.472 216.126 159.472 215.265V212.637C159.472 212.059 157.598 211.59 155.286 211.59Z" fill="#EA695E" stroke="#EA695E" stroke-miterlimit="10"/>
<path d="M151.664 212.942C151.664 212.942 155.063 214.179 158.715 212.942" stroke="black" stroke-width="2" stroke-miterlimit="10"/>
<path d="M152.596 222.364V234.351C152.596 234.779 152.877 235.156 153.288 235.275C154.372 235.588 156.578 236.029 158.801 235.3C159.2 235.169 159.472 234.802 159.472 234.383V222.268C159.472 221.671 158.936 221.217 158.347 221.319C157.194 221.518 155.346 221.728 153.737 221.42C153.145 221.305 152.596 221.761 152.596 222.364Z" fill="#396892" stroke="#396892" stroke-miterlimit="10"/>
<path d="M71.8934 186.452L43.9125 162.292L56.5801 160.708L95.9731 180.113L71.8934 186.452Z" fill="#3B56AE" stroke="#3B56AE" stroke-miterlimit="10"/>
<path d="M71.8934 186.452L71.9823 189.013L96.044 182.165L95.9732 180.113L71.8934 186.452Z" fill="#212840" stroke="#212840" stroke-miterlimit="10"/>
<path d="M43.9125 162.292L71.8934 186.452L71.9822 189.013L45.2497 165.366L43.9125 162.292Z" fill="#153677" stroke="#153677" stroke-miterlimit="10"/>
<path opacity="0.4" d="M71.8934 186.452L43.9125 162.293L55.2441 160.432L69.423 167.035C69.423 167.035 67.2299 176.578 80.5026 184.187L71.8934 186.452Z" fill="#153677" stroke="#153677" stroke-miterlimit="10"/>
<path d="M64.5158 184.763L29.9183 154.679L15.5461 109.498L54.4986 140.914L64.5158 184.763Z" fill="#4F77A9" stroke="#4F77A9" stroke-miterlimit="10"/>
<path d="M15.5461 109.498L54.4986 140.914L57.6076 140.203L18.1594 108.901L15.5461 109.498Z" fill="#153677" stroke="#153677" stroke-miterlimit="10"/>
<path d="M57.6161 140.205L54.5067 140.915L64.5255 184.765L67.6349 184.055L57.6161 140.205Z" fill="#212840" stroke="#212840" stroke-miterlimit="10"/>
<path d="M53.6427 192.404L64.0308 189.965L43.8043 171.868L47.6359 185.815L51.9933 192.539L53.6427 192.404Z" fill="#153677" stroke="#153677" stroke-miterlimit="10"/>
<path d="M51.9933 192.539L42.8392 184.474L34.2853 144.646L39.2345 149.762L51.9933 192.539Z" fill="#396892" stroke="#396892" stroke-miterlimit="10"/>
<path d="M39.2345 149.762L34.2853 144.646L35.5853 144.54L40.7494 149.638L39.2345 149.762Z" fill="#153677" stroke="#153677" stroke-miterlimit="10"/>
<path d="M51.9933 192.539L39.2344 149.762L40.7493 149.638L53.6426 192.404L51.9933 192.539Z" fill="#212840" stroke="#212840" stroke-miterlimit="10"/>
<path opacity="0.38" d="M54.4986 140.914L15.5461 109.498L29.9183 154.678L33.301 157.62C33.301 157.62 16.3912 112.387 55.2428 144.174L54.4986 140.914Z" fill="#153677" stroke="#153677" stroke-miterlimit="10"/>
<path opacity="0.64" d="M106.838 199.931L87.4984 186.371L93.9241 184.678L117.24 196.76L106.838 199.931Z" fill="#ECF9FD" stroke="#ECF9FD" stroke-miterlimit="10"/>
<path d="M105.67 217.737L92.1355 205.755V185.684L105.67 195.047V217.737Z" fill="#3B98D1" stroke="#3B98D1" stroke-miterlimit="10"/>
<path d="M92.1355 185.681L105.67 195.044L109.131 194.822L95.0464 185.675L92.1355 185.681Z" fill="#396892" stroke="#396892" stroke-miterlimit="10"/>
<path d="M105.67 195.044V217.734H109.13V194.822L105.67 195.044Z" fill="#396892" stroke="#396892" stroke-miterlimit="10"/>
<path d="M103.388 201.707L93.8364 195.044L93.7751 191.793L103.508 198.456L103.388 201.707Z" fill="white" stroke="white" stroke-miterlimit="10"/>
<path opacity="0.65" d="M106.838 224.953L87.4984 207.193V186.371L106.838 199.931V224.953Z" fill="#ECF9FD" stroke="#ECF9FD" stroke-miterlimit="10"/>
<path opacity="0.85" d="M116.926 221.245L106.838 224.953V199.931L117.24 196.76L116.926 221.245Z" fill="#ECF9FD" stroke="#ECF9FD" stroke-miterlimit="10"/>
<path d="M101.713 205.32L97.632 202.457L97.7076 198.576L94.6527 196.372L94.6059 200.335L91.809 198.373V201.757L94.5602 204.171L94.505 208.839L97.4616 211.339L97.5492 206.792L101.713 210.446V205.32Z" fill="#3B98D1" stroke="#3B98D1" stroke-miterlimit="10"/>
<path d="M90.6566 188.801V177.772C90.6566 172.122 97.6885 169.494 101.369 173.781C101.428 173.85 101.486 173.919 101.544 173.99C103.533 176.411 104.588 179.465 104.588 182.599V198.559" stroke="black" stroke-width="3" stroke-miterlimit="10"/>
<path d="M97.6224 186.594V176.824C97.6224 171.174 104.654 168.545 108.335 172.833C108.394 172.901 108.452 172.971 108.51 173.042C110.499 175.462 111.554 178.517 111.554 181.651V193.814" stroke="black" stroke-width="3" stroke-miterlimit="10"/>
<path d="M221.826 232.201C221.826 232.201 220.988 231.138 225.348 230.67C229.709 230.2 240.045 228.216 240.045 228.216C240.045 228.216 250.849 225.789 252.013 230.566L244.645 237.461L223.645 234.521L221.826 232.201Z" fill="#212840" stroke="#212840" stroke-miterlimit="10"/>
<path d="M211.152 193.961C211.152 193.961 216.3 200.718 218.095 205.912C219.892 211.106 223.465 219.918 229.009 218.816C229.009 218.816 236.788 217.525 230.913 202.983C225.038 188.442 222.772 187.152 221.287 187.109L211.152 193.961Z" fill="#1098D1" stroke="#1098D1" stroke-miterlimit="10"/>
<path d="M218.562 192.741C218.562 192.741 230.025 207.314 230.918 235.539" stroke="black" stroke-width="3" stroke-miterlimit="10"/>
<path d="M221.826 232.201L222.479 237.269C227.68 239.08 239.931 242.529 249.911 239.054L252.013 230.565C252.013 230.565 237.604 237.047 221.826 232.201Z" fill="#4FBEEA" stroke="#4FBEEA" stroke-miterlimit="10"/>
<path d="M226.698 249.045C226.698 249.045 226.864 251.797 228.294 252.3C229.555 252.745 238.869 253.319 241.031 253.446C241.889 253.496 242.744 253.206 243.357 252.603C243.883 252.087 244.362 251.263 244.551 249.951L226.698 249.045Z" fill="#212840" stroke="#212840" stroke-miterlimit="10"/>
<path d="M222.478 237.269L223.594 245.94C223.594 245.94 224.024 250.628 231.968 251.335C239.912 252.042 240.786 251.651 240.786 251.651C240.786 251.651 246.158 251.717 248.15 246.161L249.91 239.053C239.931 242.529 227.679 239.08 222.478 237.269Z" fill="#4FBEEA" stroke="#4FBEEA" stroke-miterlimit="10"/>
<path d="M227.725 250.834L207.109 260.515" stroke="black" stroke-width="3" stroke-miterlimit="10"/>
<path d="M231.247 251.828L218.172 278.653" stroke="black" stroke-width="3" stroke-miterlimit="10"/>
<path d="M242.003 252.552L254.367 268.809" stroke="black" stroke-width="3" stroke-miterlimit="10"/>
<path d="M238.835 252.741L240.003 262.983" stroke="black" stroke-width="3" stroke-miterlimit="10"/>
<path d="M226.053 192.259C226.053 192.259 218.608 189.26 210.696 197.757C202.784 206.254 198.453 203.549 198.453 203.549C198.453 203.549 190.692 197.895 203.457 187.039C206.574 184.388 210.62 183.041 214.695 183.415C218.704 183.782 223.256 185.821 226.053 192.259Z" fill="#4FBEEA" stroke="#4FBEEA" stroke-miterlimit="10"/>
<path d="M204.454 195.465C204.454 195.465 208.909 184.925 220.488 185.336" stroke="black" stroke-width="3" stroke-miterlimit="10"/>
<path d="M236.245 210.258C236.245 210.258 232.16 211.299 230.957 196.521C229.885 183.359 227.489 178.123 226.978 177.135C226.809 176.808 226.647 176.478 226.497 176.143C225.109 173.036 220.903 161.946 230.045 159.054C230.045 159.054 239.062 156.285 240.794 178.631C240.794 178.63 244.618 206.601 236.245 210.258Z" fill="#4FBEEA" stroke="#4FBEEA" stroke-miterlimit="10"/>
<path d="M231.9 170.095C231.9 170.095 238.952 197.27 234.125 233.998" stroke="black" stroke-width="3" stroke-miterlimit="10"/>
<path d="M242.18 217.005C242.18 217.005 235.608 208.959 253.574 188.085L261.82 187.649L263.579 192.195C263.579 192.195 257.821 200.912 255.122 204.705C252.424 208.498 248.776 216.328 242.18 217.005Z" fill="#1098D1" stroke="#1098D1" stroke-miterlimit="10"/>
<path d="M238.324 233.812C238.324 233.812 242.044 203.44 258.201 189.873" stroke="black" stroke-width="3" stroke-miterlimit="10"/>
<path d="M253.574 188.085C253.574 188.085 265.024 179.582 272.871 188.664C280.718 197.746 273.179 201.599 273.179 201.599C273.179 201.599 267.055 203.386 264.412 197.284C261.768 191.182 257.157 187.709 253.574 188.085Z" fill="#4FBEEA" stroke="#4FBEEA" stroke-miterlimit="10"/>
<path d="M246.028 226.059C246.028 226.059 239.145 219.942 254.324 211.337C254.324 211.337 264.53 206.231 274.596 211.912L271.798 217.722C271.798 217.722 267.947 215.026 258.965 221.673C249.982 228.32 249.691 226.573 246.028 226.059Z" fill="#1098D1" stroke="#1098D1" stroke-miterlimit="10"/>
<path d="M241.17 233.319C241.17 233.319 248.61 216.981 267.718 212.947" stroke="black" stroke-width="3" stroke-miterlimit="10"/>
<path d="M262.972 209.262C262.972 209.262 270.249 215.114 271.799 217.722C271.799 217.722 274.114 222.685 279.811 221.222C280.696 220.995 281.413 220.338 281.701 219.47C282.712 216.423 283.012 209.178 262.972 209.262Z" fill="#4FBEEA" stroke="#4FBEEA" stroke-miterlimit="10"/>
<path d="M222.478 237.269C222.478 237.269 237.445 243.927 249.91 239.054L249.308 241.491C249.308 241.491 239.945 243.856 233.808 243.081C232.345 242.897 231.087 244.095 231.185 245.567C231.344 247.914 232.055 250.854 234.543 251.548C234.543 251.548 225.133 252.286 223.594 245.942L222.478 237.269Z" fill="#1098D1" stroke="#1098D1" stroke-miterlimit="10"/>
<path d="M23.8691 73.6465C25.7667 71.7484 25.7667 68.671 23.8691 66.773C21.9715 64.8749 18.8949 64.8749 16.9973 66.773C15.0997 68.671 15.0997 71.7484 16.9973 73.6465C18.8949 75.5446 21.9715 75.5446 23.8691 73.6465Z" fill="white" stroke="white" stroke-miterlimit="10"/>
<path d="M302.557 64.6099C303.017 62.6635 301.812 60.7131 299.866 60.2535C297.92 59.7939 295.97 60.9992 295.511 62.9456C295.051 64.8919 296.256 66.8424 298.202 67.302C300.148 67.7616 302.098 66.5563 302.557 64.6099Z" fill="white" stroke="white" stroke-miterlimit="10"/>
<path d="M264.7 116.344C265.7 116.344 266.511 115.534 266.511 114.534C266.511 113.534 265.7 112.723 264.7 112.723C263.701 112.723 262.89 113.534 262.89 114.534C262.89 115.534 263.701 116.344 264.7 116.344Z" fill="white" stroke="white" stroke-miterlimit="10"/>
<path d="M295.402 163.146C296.402 163.146 297.213 162.335 297.213 161.335C297.213 160.335 296.402 159.524 295.402 159.524C294.403 159.524 293.592 160.335 293.592 161.335C293.592 162.335 294.403 163.146 295.402 163.146Z" fill="#5C8A92" stroke="#5C8A92" stroke-miterlimit="10"/>
<path d="M183.261 267.256C185.621 267.256 187.534 265.343 187.534 262.983C187.534 260.623 185.621 258.71 183.261 258.71C180.902 258.71 178.989 260.623 178.989 262.983C178.989 265.343 180.902 267.256 183.261 267.256Z" fill="white" stroke="white" stroke-miterlimit="10"/>
<path d="M51.8187 213.125C53.3291 212.499 54.0464 210.767 53.4207 209.256C52.7951 207.745 51.0634 207.028 49.553 207.654C48.0426 208.279 47.3253 210.012 47.951 211.522C48.5766 213.033 50.3083 213.751 51.8187 213.125Z" fill="#5C8A92" stroke="#5C8A92" stroke-miterlimit="10"/>
</g>
<defs>
<clipPath id="clip0">
<rect width="344.239" height="279" fill="white"/>
</clipPath>
</defs>
</svg>
