<svg width="95" height="48" viewBox="0 0 95 48" fill="none" xmlns="http://www.w3.org/2000/svg">
<g clip-path="url(#clip0)">
<path d="M5.82 10.44C9.3 10.44 11.64 8.16 11.64 5.04C11.64 2.16 9.3 0 5.82 0C2.34 0 0 2.28 0 5.22C0 8.16 2.34 10.44 5.82 10.44Z" fill="#11999E"/>
<path d="M10.5 14.94H1.14001V47.22H10.5V14.94Z" fill="#11999E"/>
<path d="M47.63 33.72C53.09 31.38 56.27 26.76 56.27 20.46C56.27 11.04 49.25 5.22 38.03 5.22H19.85V47.22H29.57V35.52H38.51L46.61 47.22H57.05L47.63 33.72ZM37.49 27.78H29.57V13.14H37.49C43.43 13.14 46.43 15.84 46.43 20.46C46.43 25.02 43.43 27.78 37.49 27.78Z" fill="#616161"/>
<path d="M94.45 47.22L81.97 30.72L93.97 14.94H84.01L76.99 24.36L70.15 14.94H59.65L71.65 30.96L59.23 47.22H69.43L76.75 37.32L83.83 47.22H94.45Z" fill="#616161"/>
</g>
<defs>
<clipPath id="clip0">
<rect width="94.45" height="47.22" fill="white"/>
</clipPath>
</defs>
</svg>
